<svg width="59" height="48" viewBox="0 0 59 48" fill="none" xmlns="http://www.w3.org/2000/svg">
<path d="M0 9.97996C8.66321 4.84077 19.4221 4.76271 28.159 9.77567L28.515 9.97996V47.9999L28.0998 47.8434C19.0349 44.4255 9.02621 44.4813 0 47.9999V9.97996Z" fill="#98B5E1"/>
<path d="M3.56488 11.7313L3.86527 11.4441C10.6761 4.93089 21.2971 4.5865 28.5155 10.6448V47.4666L27.6347 46.5799C21.0539 39.9549 10.405 39.7423 3.56488 46.0992V11.7313Z" fill="#4662C1"/>
<path d="M8.31738 14.061C13.9657 8.90183 22.5948 8.83033 28.3278 13.8951L28.5155 14.061L28.3278 46.3995C26.1493 38.9284 14.0064 35.5841 8.31738 40.6341V14.061Z" fill="#314EB1"/>
<path d="M30.4159 9.97996C39.0791 4.84077 49.838 4.76271 58.5748 9.77567L58.9309 9.97996V47.9999L58.5157 47.8434C49.4508 44.4255 39.4421 44.4813 30.4159 47.9999V9.97996Z" fill="#98B5E1"/>
<path d="M30.4159 10.8227C37.3691 4.68831 47.8482 4.85217 54.6063 11.2009L55.3665 11.9151V46.0993C48.2984 39.7798 37.4895 40.2146 30.952 47.0814L30.4159 47.6445V10.8227Z" fill="#4662C1"/>
<path d="M50.7937 13.8505C45.1454 8.69138 36.5163 8.61988 30.7833 13.6847L30.5956 13.8505L30.7833 46.189C32.9617 38.7179 45.1047 35.3737 50.7937 40.4236V13.8505Z" fill="#314EB1"/>
<rect x="28.4618" y="9.57764" width="2.1346" height="37.3554" fill="#20357A"/>
</svg>
