<svg width="21" height="20" viewBox="0 0 21 20" fill="none" xmlns="http://www.w3.org/2000/svg">
<path d="M18.7683 0H2.76831C1.66831 0 0.778311 0.9 0.778311 2L0.768311 20L4.76831 16H18.7683C19.8683 16 20.7683 15.1 20.7683 14V2C20.7683 0.9 19.8683 0 18.7683 0ZM18.7683 14H3.93831L3.34831 14.59L2.76831 15.17V2H18.7683V14ZM9.26831 12H16.7683V10H11.2683L9.26831 12ZM13.1283 6.13C13.3283 5.93 13.3283 5.62 13.1283 5.42L11.3583 3.65C11.1583 3.45 10.8483 3.45 10.6483 3.65L4.76831 9.53V12H7.23831L13.1283 6.13Z" fill="black"/>
</svg>
