<svg width="125" height="34" viewBox="0 0 125 34" fill="none" xmlns="http://www.w3.org/2000/svg">
<path d="M0.768311 7.04527C6.88375 3.41747 14.4785 3.36237 20.646 6.90106L20.8973 7.04527V33.8839L20.6042 33.7734C14.2052 31.3607 7.13999 31.4001 0.768311 33.8839V7.04527Z" fill="#98B5E1"/>
<path d="M3.28455 8.28127L3.4966 8.07849C8.30439 3.48077 15.8019 3.23766 20.8974 7.51426V33.5071L20.2757 32.8812C15.6302 28.2046 8.11302 28.0545 3.28455 32.5419V8.28127Z" fill="#4662C1"/>
<path d="M6.64001 9.92585C10.6272 6.28397 16.7185 6.2335 20.7656 9.80881L20.8981 9.92585L20.7656 32.7539C19.2278 27.48 10.656 25.1193 6.64001 28.6841V9.92585Z" fill="#314EB1"/>
<path d="M22.2394 7.04527C28.3548 3.41747 35.9496 3.36237 42.117 6.90106L42.3684 7.04527V33.8839L42.0753 33.7734C35.6763 31.3607 28.6111 31.4001 22.2394 33.8839V7.04527Z" fill="#98B5E1"/>
<path d="M22.2394 7.63983C27.1477 3.30952 34.545 3.4252 39.3156 7.90685L39.8522 8.41101V32.5419C34.8628 28.0809 27.2327 28.3879 22.6178 33.2352L22.2394 33.6327V7.63983Z" fill="#4662C1"/>
<path d="M36.6237 9.77693C32.6364 6.13505 26.5451 6.08458 22.4981 9.65988L22.3656 9.77693L22.4981 32.605C24.0359 27.3311 32.6077 24.9703 36.6237 28.5351V9.77693Z" fill="#314EB1"/>
<rect x="20.8599" y="6.76068" width="1.50683" height="26.3696" fill="#20357A"/>
<path d="M64.5593 19.1219C63.6073 19.1219 62.729 18.9689 61.9243 18.6629C61.1196 18.3569 60.417 17.9262 59.8163 17.3709C59.227 16.8042 58.768 16.1468 58.4393 15.3988C58.1106 14.6508 57.9463 13.8292 57.9463 12.9338C57.9463 12.0385 58.1106 11.2168 58.4393 10.4688C58.768 9.72085 59.227 9.06918 59.8163 8.51385C60.417 7.94718 61.1196 7.51085 61.9243 7.20485C62.729 6.89885 63.6073 6.74585 64.5593 6.74585C65.5226 6.74585 66.401 6.89885 67.1943 7.20485C67.999 7.51085 68.696 7.94718 69.2853 8.51385C69.8746 9.06918 70.3336 9.72085 70.6623 10.4688C71.0023 11.2168 71.1723 12.0385 71.1723 12.9338C71.1723 13.8292 71.0023 14.6565 70.6623 15.4158C70.3336 16.1638 69.8746 16.8155 69.2853 17.3709C68.696 17.9262 67.999 18.3569 67.1943 18.6629C66.401 18.9689 65.5226 19.1219 64.5593 19.1219ZM64.5593 16.3338C65.0126 16.3338 65.432 16.2545 65.8173 16.0959C66.214 15.9372 66.554 15.7105 66.8373 15.4158C67.132 15.1098 67.3586 14.7472 67.5173 14.3278C67.6873 13.9085 67.7723 13.4438 67.7723 12.9338C67.7723 12.4125 67.6873 11.9478 67.5173 11.5398C67.3586 11.1205 67.132 10.7635 66.8373 10.4688C66.554 10.1628 66.214 9.93052 65.8173 9.77185C65.432 9.61318 65.0126 9.53385 64.5593 9.53385C64.106 9.53385 63.681 9.61318 63.2843 9.77185C62.899 9.93052 62.559 10.1628 62.2643 10.4688C61.981 10.7635 61.7543 11.1205 61.5843 11.5398C61.4256 11.9478 61.3463 12.4125 61.3463 12.9338C61.3463 13.4438 61.4256 13.9085 61.5843 14.3278C61.7543 14.7472 61.981 15.1098 62.2643 15.4158C62.559 15.7105 62.899 15.9372 63.2843 16.0959C63.681 16.2545 64.106 16.3338 64.5593 16.3338ZM71.4124 18.8839L75.6454 13.3248L75.5774 15.1608L71.5144 9.66985H75.1524L77.4304 12.9168L76.0704 12.9849L78.4844 9.66985H81.9014L77.8384 15.0418V13.2738L82.0204 18.8839H78.3314L75.9514 15.4158L77.3114 15.6029L74.9144 18.8839H71.4124ZM84.0752 22.3349C83.5878 22.3349 83.0948 22.2555 82.5962 22.0969C82.1088 21.9495 81.7122 21.7512 81.4062 21.5019L82.5282 19.2409C82.7208 19.4109 82.9418 19.5412 83.1912 19.6319C83.4518 19.7339 83.7068 19.7849 83.9562 19.7849C84.3075 19.7849 84.5852 19.7055 84.7892 19.5469C84.9932 19.3882 85.1688 19.1389 85.3162 18.7989L85.7412 17.7279L85.9962 17.4049L89.1242 9.66985H92.2012L88.2232 19.2579C87.9058 20.0512 87.5375 20.6689 87.1182 21.1109C86.7102 21.5642 86.2512 21.8815 85.7412 22.0629C85.2425 22.2442 84.6872 22.3349 84.0752 22.3349ZM85.3332 19.2749L81.2702 9.66985H84.5852L87.5772 17.1159L85.3332 19.2749ZM64.2023 33.0369C63.375 33.0369 62.6836 32.8669 62.1283 32.5269C61.5843 32.1869 61.1763 31.6655 60.9043 30.9629C60.6323 30.2602 60.4963 29.3592 60.4963 28.2598C60.4963 27.1832 60.638 26.2935 60.9213 25.5908C61.216 24.8882 61.641 24.3668 62.1963 24.0268C62.7516 23.6868 63.4203 23.5169 64.2023 23.5169C65.041 23.5169 65.8003 23.7095 66.4803 24.0948C67.1716 24.4802 67.7156 25.0298 68.1123 25.7438C68.5203 26.4465 68.7243 27.2852 68.7243 28.2598C68.7243 29.2458 68.5203 30.0959 68.1123 30.8098C67.7156 31.5125 67.1716 32.0622 66.4803 32.4589C65.8003 32.8442 65.041 33.0369 64.2023 33.0369ZM58.4053 32.8839V20.2698H61.6353V25.2168L61.4653 28.2598L61.4823 31.3029V32.8839H58.4053ZM63.5223 30.4699C63.885 30.4699 64.208 30.3849 64.4913 30.2149C64.786 30.0449 65.0183 29.7955 65.1883 29.4669C65.3696 29.1268 65.4603 28.7245 65.4603 28.2598C65.4603 27.7952 65.3696 27.4042 65.1883 27.0868C65.0183 26.7582 64.786 26.5088 64.4913 26.3388C64.208 26.1688 63.885 26.0838 63.5223 26.0838C63.1596 26.0838 62.831 26.1688 62.5363 26.3388C62.253 26.5088 62.0206 26.7582 61.8393 27.0868C61.6693 27.4042 61.5843 27.7952 61.5843 28.2598C61.5843 28.7245 61.6693 29.1268 61.8393 29.4669C62.0206 29.7955 62.253 30.0449 62.5363 30.2149C62.831 30.3849 63.1596 30.4699 63.5223 30.4699ZM74.8496 33.0369C73.8409 33.0369 72.9456 32.8329 72.1636 32.4249C71.3816 32.0169 70.7639 31.4559 70.3106 30.7419C69.8686 30.0165 69.6476 29.1892 69.6476 28.2598C69.6476 27.3305 69.8686 26.5088 70.3106 25.7948C70.7639 25.0808 71.3816 24.5255 72.1636 24.1288C72.9456 23.7208 73.8409 23.5169 74.8496 23.5169C75.8583 23.5169 76.7536 23.7208 77.5356 24.1288C78.3289 24.5255 78.9466 25.0808 79.3886 25.7948C79.8306 26.5088 80.0516 27.3305 80.0516 28.2598C80.0516 29.1892 79.8306 30.0165 79.3886 30.7419C78.9466 31.4559 78.3289 32.0169 77.5356 32.4249C76.7536 32.8329 75.8583 33.0369 74.8496 33.0369ZM74.8496 30.4699C75.2236 30.4699 75.5523 30.3849 75.8356 30.2149C76.1303 30.0449 76.3626 29.7955 76.5326 29.4669C76.7026 29.1268 76.7876 28.7245 76.7876 28.2598C76.7876 27.7952 76.7026 27.4042 76.5326 27.0868C76.3626 26.7582 76.1303 26.5088 75.8356 26.3388C75.5523 26.1688 75.2236 26.0838 74.8496 26.0838C74.4869 26.0838 74.1583 26.1688 73.8636 26.3388C73.5803 26.5088 73.3479 26.7582 73.1666 27.0868C72.9966 27.4042 72.9116 27.7952 72.9116 28.2598C72.9116 28.7245 72.9966 29.1268 73.1666 29.4669C73.3479 29.7955 73.5803 30.0449 73.8636 30.2149C74.1583 30.3849 74.4869 30.4699 74.8496 30.4699ZM86.1719 33.0369C85.1632 33.0369 84.2679 32.8329 83.4859 32.4249C82.7039 32.0169 82.0862 31.4559 81.6329 30.7419C81.1909 30.0165 80.9699 29.1892 80.9699 28.2598C80.9699 27.3305 81.1909 26.5088 81.6329 25.7948C82.0862 25.0808 82.7039 24.5255 83.4859 24.1288C84.2679 23.7208 85.1632 23.5169 86.1719 23.5169C87.1805 23.5169 88.0759 23.7208 88.8579 24.1288C89.6512 24.5255 90.2689 25.0808 90.7109 25.7948C91.1529 26.5088 91.3739 27.3305 91.3739 28.2598C91.3739 29.1892 91.1529 30.0165 90.7109 30.7419C90.2689 31.4559 89.6512 32.0169 88.8579 32.4249C88.0759 32.8329 87.1805 33.0369 86.1719 33.0369ZM86.1719 30.4699C86.5459 30.4699 86.8745 30.3849 87.1579 30.2149C87.4525 30.0449 87.6849 29.7955 87.8549 29.4669C88.0249 29.1268 88.1099 28.7245 88.1099 28.2598C88.1099 27.7952 88.0249 27.4042 87.8549 27.0868C87.6849 26.7582 87.4525 26.5088 87.1579 26.3388C86.8745 26.1688 86.5459 26.0838 86.1719 26.0838C85.8092 26.0838 85.4805 26.1688 85.1859 26.3388C84.9025 26.5088 84.6702 26.7582 84.4889 27.0868C84.3189 27.4042 84.2339 27.7952 84.2339 28.2598C84.2339 28.7245 84.3189 29.1268 84.4889 29.4669C84.6702 29.7955 84.9025 30.0449 85.1859 30.2149C85.4805 30.3849 85.8092 30.4699 86.1719 30.4699ZM95.5561 31.1839L95.6411 27.3248L99.3981 23.6698H103.223L99.0581 27.9709L97.4091 29.2968L95.5561 31.1839ZM92.8701 32.8839V20.2698H96.1001V32.8839H92.8701ZM99.6361 32.8839L96.8141 29.3479L98.8201 26.8659L103.546 32.8839H99.6361Z" fill="black"/>
</svg>
