<svg width="41" height="41" viewBox="0 0 41 41" fill="none" xmlns="http://www.w3.org/2000/svg">
<circle cx="20.5" cy="20.5" r="20.5" fill="#D9D9D9"/>
<path fill-rule="evenodd" clip-rule="evenodd" d="M16.5556 14.4444C16.5556 13.2657 17.0238 12.1352 17.8573 11.3017C18.6908 10.4683 19.8213 10 21 10C22.1787 10 23.3092 10.4683 24.1427 11.3017C24.9762 12.1352 25.4444 13.2657 25.4444 14.4444C25.4444 15.6232 24.9762 16.7536 24.1427 17.5871C23.3092 18.4206 22.1787 18.8889 21 18.8889C19.8213 18.8889 18.6908 18.4206 17.8573 17.5871C17.0238 16.7536 16.5556 15.6232 16.5556 14.4444ZM16.5556 21.1111C15.0821 21.1111 13.6691 21.6964 12.6272 22.7383C11.5853 23.7802 11 25.1932 11 26.6667C11 27.5507 11.3512 28.3986 11.9763 29.0237C12.6014 29.6488 13.4493 30 14.3333 30H27.6667C28.5507 30 29.3986 29.6488 30.0237 29.0237C30.6488 28.3986 31 27.5507 31 26.6667C31 25.1932 30.4147 23.7802 29.3728 22.7383C28.3309 21.6964 26.9179 21.1111 25.4444 21.1111H16.5556Z" fill="#0E122D"/>
</svg>
