<svg width="151" height="21" viewBox="0 0 151 21" fill="none" xmlns="http://www.w3.org/2000/svg">
<path d="M13.592 11.24C14.552 11.576 15.304 12.104 15.848 12.824C16.392 13.528 16.664 14.384 16.664 15.392C16.664 16.864 16.072 18 14.888 18.8C13.704 19.6 11.992 20 9.752 20H0.68V3.2H9.272C11.416 3.2 13.048 3.6 14.168 4.4C15.288 5.184 15.848 6.248 15.848 7.592C15.848 8.392 15.648 9.112 15.248 9.752C14.864 10.376 14.312 10.872 13.592 11.24ZM5.384 6.632V9.872H8.648C10.248 9.872 11.048 9.328 11.048 8.24C11.048 7.168 10.248 6.632 8.648 6.632H5.384ZM9.368 16.568C11.032 16.568 11.864 16 11.864 14.864C11.864 13.728 11.032 13.16 9.368 13.16H5.384V16.568H9.368ZM25.8693 16.736C26.4933 16.736 27.0293 16.648 27.4773 16.472C27.9413 16.296 28.4053 16.008 28.8693 15.608L31.2453 18.104C30.0133 19.512 28.1733 20.216 25.7253 20.216C24.2053 20.216 22.8693 19.928 21.7173 19.352C20.5653 18.776 19.6693 17.976 19.0293 16.952C18.4053 15.928 18.0933 14.768 18.0933 13.472C18.0933 12.192 18.4053 11.048 19.0293 10.04C19.6533 9.016 20.5093 8.216 21.5973 7.64C22.7013 7.064 23.9333 6.776 25.2933 6.776C26.5573 6.776 27.7093 7.04 28.7493 7.568C29.8053 8.08 30.6453 8.84 31.2693 9.848C31.8933 10.84 32.2053 12.024 32.2053 13.4L22.9173 15.176C23.4133 16.216 24.3973 16.736 25.8693 16.736ZM25.3173 10.016C24.5333 10.016 23.8933 10.264 23.3973 10.76C22.9013 11.24 22.6213 11.936 22.5573 12.848L27.8373 11.816C27.6773 11.272 27.3733 10.84 26.9253 10.52C26.4773 10.184 25.9413 10.016 25.3173 10.016ZM51.2518 6.776C52.8518 6.776 54.1238 7.256 55.0678 8.216C56.0278 9.176 56.5078 10.624 56.5078 12.56V20H51.9478V13.304C51.9478 12.392 51.7718 11.72 51.4198 11.288C51.0838 10.856 50.6038 10.64 49.9798 10.64C49.2918 10.64 48.7398 10.88 48.3238 11.36C47.9078 11.84 47.6998 12.568 47.6998 13.544V20H43.1398V13.304C43.1398 11.528 42.4838 10.64 41.1718 10.64C40.4678 10.64 39.9078 10.88 39.4918 11.36C39.0758 11.84 38.8678 12.568 38.8678 13.544V20H34.3078V6.992H38.6518V8.36C39.1318 7.832 39.6998 7.44 40.3558 7.184C41.0278 6.912 41.7558 6.776 42.5398 6.776C43.4518 6.776 44.2678 6.944 44.9878 7.28C45.7078 7.616 46.2918 8.128 46.7398 8.816C47.2518 8.16 47.8998 7.656 48.6838 7.304C49.4678 6.952 50.3238 6.776 51.2518 6.776ZM80.0743 6.992L74.6983 20H69.9943L64.6422 6.992H69.3223L72.4423 14.936L75.7303 6.992H80.0743ZM81.2531 6.992H85.8131V20H81.2531V6.992ZM83.5331 5.552C82.7011 5.552 82.0291 5.32 81.5171 4.856C81.0051 4.392 80.7491 3.816 80.7491 3.128C80.7491 2.44 81.0051 1.864 81.5171 1.4C82.0291 0.935999 82.7011 0.704 83.5331 0.704C84.3651 0.704 85.0371 0.927999 85.5491 1.376C86.0611 1.808 86.3171 2.368 86.3171 3.056C86.3171 3.776 86.0611 4.376 85.5491 4.856C85.0371 5.32 84.3651 5.552 83.5331 5.552ZM97.2485 6.776C98.8645 6.776 100.161 7.256 101.137 8.216C102.129 9.176 102.625 10.624 102.625 12.56V20H98.0645V13.304C98.0645 11.528 97.3525 10.64 95.9285 10.64C95.1445 10.64 94.5125 10.896 94.0325 11.408C93.5685 11.92 93.3365 12.688 93.3365 13.712V20H88.7765V6.992H93.1205V8.408C93.6325 7.88 94.2405 7.48 94.9445 7.208C95.6485 6.92 96.4165 6.776 97.2485 6.776ZM119.499 2.192V20H115.155V18.704C114.307 19.712 113.035 20.216 111.339 20.216C110.155 20.216 109.075 19.944 108.099 19.4C107.123 18.84 106.347 18.048 105.771 17.024C105.211 16 104.931 14.816 104.931 13.472C104.931 12.128 105.211 10.952 105.771 9.944C106.347 8.92 107.123 8.136 108.099 7.592C109.075 7.048 110.155 6.776 111.339 6.776C112.891 6.776 114.091 7.224 114.939 8.12V2.192H119.499ZM112.299 16.592C113.083 16.592 113.731 16.32 114.243 15.776C114.755 15.216 115.011 14.448 115.011 13.472C115.011 12.512 114.755 11.76 114.243 11.216C113.747 10.672 113.099 10.4 112.299 10.4C111.499 10.4 110.843 10.672 110.331 11.216C109.819 11.76 109.563 12.512 109.563 13.472C109.563 14.448 109.819 15.216 110.331 15.776C110.843 16.32 111.499 16.592 112.299 16.592ZM128.961 20.216C127.569 20.216 126.313 19.928 125.193 19.352C124.073 18.776 123.193 17.976 122.553 16.952C121.929 15.928 121.617 14.768 121.617 13.472C121.617 12.192 121.929 11.04 122.553 10.016C123.193 8.992 124.065 8.2 125.169 7.64C126.289 7.064 127.553 6.776 128.961 6.776C130.369 6.776 131.633 7.064 132.753 7.64C133.873 8.2 134.745 8.992 135.369 10.016C135.993 11.024 136.305 12.176 136.305 13.472C136.305 14.768 135.993 15.928 135.369 16.952C134.745 17.976 133.873 18.776 132.753 19.352C131.633 19.928 130.369 20.216 128.961 20.216ZM128.961 16.592C129.761 16.592 130.417 16.32 130.929 15.776C131.441 15.216 131.697 14.448 131.697 13.472C131.697 12.512 131.441 11.76 130.929 11.216C130.417 10.672 129.761 10.4 128.961 10.4C128.161 10.4 127.505 10.672 126.993 11.216C126.481 11.76 126.225 12.512 126.225 13.472C126.225 14.448 126.481 15.216 126.993 15.776C127.505 16.32 128.161 16.592 128.961 16.592ZM144.85 3.2H150.273L149.362 13.88H145.738L144.85 3.2ZM147.562 20.216C146.762 20.216 146.106 19.976 145.594 19.496C145.082 19 144.826 18.4 144.826 17.696C144.826 16.976 145.082 16.384 145.594 15.92C146.106 15.456 146.762 15.224 147.562 15.224C148.362 15.224 149.01 15.456 149.506 15.92C150.018 16.384 150.273 16.976 150.273 17.696C150.273 18.4 150.018 19 149.506 19.496C148.994 19.976 148.346 20.216 147.562 20.216Z" fill="#2A3DA3"/>
</svg>
