<svg width="457" height="504" viewBox="0 0 457 504" fill="none" xmlns="http://www.w3.org/2000/svg">
<path d="M10.744 29.476C8.81733 29.476 6.94733 29.238 5.134 28.762C3.32067 28.286 1.84733 27.6513 0.714 26.858L2.924 21.894C3.98933 22.5967 5.22467 23.1633 6.63 23.594C8.03533 24.0247 9.418 24.24 10.778 24.24C13.362 24.24 14.654 23.594 14.654 22.302C14.654 21.622 14.28 21.1233 13.532 20.806C12.8067 20.466 11.628 20.1147 9.996 19.752C8.20533 19.3667 6.70933 18.9587 5.508 18.528C4.30667 18.0747 3.27533 17.3607 2.414 16.386C1.55267 15.4113 1.122 14.0967 1.122 12.442C1.122 10.9913 1.51867 9.688 2.312 8.532C3.10533 7.35333 4.284 6.424 5.848 5.744C7.43467 5.064 9.37267 4.724 11.662 4.724C13.226 4.724 14.7673 4.90533 16.286 5.268C17.8047 5.608 19.142 6.118 20.298 6.798L18.224 11.796C15.9573 10.572 13.7587 9.96 11.628 9.96C10.2907 9.96 9.316 10.164 8.704 10.572C8.092 10.9573 7.786 11.4673 7.786 12.102C7.786 12.7367 8.14867 13.2127 8.874 13.53C9.59933 13.8473 10.7667 14.176 12.376 14.516C14.1893 14.9013 15.6853 15.3207 16.864 15.774C18.0653 16.2047 19.0967 16.9073 19.958 17.882C20.842 18.834 21.284 20.1373 21.284 21.792C21.284 23.22 20.8873 24.512 20.094 25.668C19.3007 26.824 18.1107 27.7533 16.524 28.456C14.9373 29.136 13.0107 29.476 10.744 29.476ZM43.4677 10.572V29H37.3137V27.028C36.6337 27.776 35.8177 28.3427 34.8657 28.728C33.9137 29.1133 32.905 29.306 31.8397 29.306C29.4597 29.306 27.5557 28.6033 26.1277 27.198C24.7223 25.7927 24.0197 23.6847 24.0197 20.874V10.572H30.4797V19.82C30.4797 21.2027 30.7403 22.2113 31.2617 22.846C31.783 23.4807 32.5423 23.798 33.5397 23.798C34.5597 23.798 35.387 23.4467 36.0217 22.744C36.679 22.0187 37.0077 20.9193 37.0077 19.446V10.572H43.4677ZM67.1107 10.572V29H60.9567V27.164C59.7554 28.592 57.942 29.306 55.5167 29.306C53.8394 29.306 52.3094 28.9207 50.9267 28.15C49.5667 27.3567 48.4787 26.2347 47.6627 24.784C46.8694 23.3333 46.4727 21.656 46.4727 19.752C46.4727 17.848 46.8694 16.182 47.6627 14.754C48.4787 13.3033 49.5667 12.1927 50.9267 11.422C52.3094 10.6513 53.8394 10.266 55.5167 10.266C57.6927 10.266 59.404 10.9007 60.6507 12.17V10.572H67.1107ZM56.8767 24.172C58.01 24.172 58.9394 23.7867 59.6647 23.016C60.39 22.2227 60.7527 21.1347 60.7527 19.752C60.7527 18.392 60.39 17.3267 59.6647 16.556C58.9394 15.7853 58.01 15.4 56.8767 15.4C55.7434 15.4 54.814 15.7853 54.0887 16.556C53.3634 17.3267 53.0007 18.392 53.0007 19.752C53.0007 21.1347 53.3634 22.2227 54.0887 23.016C54.814 23.7867 55.7434 24.172 56.8767 24.172ZM93.1658 10.266C95.4552 10.266 97.2912 10.946 98.6738 12.306C100.079 13.666 100.782 15.7173 100.782 18.46V29H94.3218V19.514C94.3218 16.998 93.3132 15.74 91.2958 15.74C90.1852 15.74 89.2898 16.1027 88.6098 16.828C87.9525 17.5533 87.6238 18.6413 87.6238 20.092V29H81.1638V10.572H87.3178V12.578C88.0432 11.83 88.9045 11.2633 89.9018 10.878C90.8992 10.47 91.9872 10.266 93.1658 10.266ZM114.351 29.306C112.379 29.306 110.6 28.898 109.013 28.082C107.427 27.266 106.18 26.1327 105.273 24.682C104.389 23.2313 103.947 21.588 103.947 19.752C103.947 17.9387 104.389 16.3067 105.273 14.856C106.18 13.4053 107.415 12.2833 108.979 11.49C110.566 10.674 112.357 10.266 114.351 10.266C116.346 10.266 118.137 10.674 119.723 11.49C121.31 12.2833 122.545 13.4053 123.429 14.856C124.313 16.284 124.755 17.916 124.755 19.752C124.755 21.588 124.313 23.2313 123.429 24.682C122.545 26.1327 121.31 27.266 119.723 28.082C118.137 28.898 116.346 29.306 114.351 29.306ZM114.351 24.172C115.485 24.172 116.414 23.7867 117.139 23.016C117.865 22.2227 118.227 21.1347 118.227 19.752C118.227 18.392 117.865 17.3267 117.139 16.556C116.414 15.7853 115.485 15.4 114.351 15.4C113.218 15.4 112.289 15.7853 111.563 16.556C110.838 17.3267 110.475 18.392 110.475 19.752C110.475 21.1347 110.838 22.2227 111.563 23.016C112.289 23.7867 113.218 24.172 114.351 24.172ZM146.664 10.572L139.048 29H132.384L124.802 10.572H131.432L135.852 21.826L140.51 10.572H146.664ZM167.318 10.572V29H161.164V27.164C159.962 28.592 158.149 29.306 155.724 29.306C154.046 29.306 152.516 28.9207 151.134 28.15C149.774 27.3567 148.686 26.2347 147.87 24.784C147.076 23.3333 146.68 21.656 146.68 19.752C146.68 17.848 147.076 16.182 147.87 14.754C148.686 13.3033 149.774 12.1927 151.134 11.422C152.516 10.6513 154.046 10.266 155.724 10.266C157.9 10.266 159.611 10.9007 160.858 12.17V10.572H167.318ZM157.084 24.172C158.217 24.172 159.146 23.7867 159.872 23.016C160.597 22.2227 160.96 21.1347 160.96 19.752C160.96 18.392 160.597 17.3267 159.872 16.556C159.146 15.7853 158.217 15.4 157.084 15.4C155.95 15.4 155.021 15.7853 154.296 16.556C153.57 17.3267 153.208 18.392 153.208 19.752C153.208 21.1347 153.57 22.2227 154.296 23.016C155.021 23.7867 155.95 24.172 157.084 24.172ZM192.965 10.266C194.642 10.266 196.161 10.6627 197.521 11.456C198.904 12.2267 199.992 13.3373 200.785 14.788C201.601 16.216 202.009 17.882 202.009 19.786C202.009 21.69 201.601 23.3673 200.785 24.818C199.992 26.246 198.904 27.3567 197.521 28.15C196.161 28.9207 194.642 29.306 192.965 29.306C190.812 29.306 189.1 28.66 187.831 27.368V35.596H181.371V10.572H187.525V12.408C188.726 10.98 190.54 10.266 192.965 10.266ZM191.605 24.172C192.738 24.172 193.668 23.7867 194.393 23.016C195.118 22.2227 195.481 21.146 195.481 19.786C195.481 18.426 195.118 17.3607 194.393 16.59C193.668 15.7967 192.738 15.4 191.605 15.4C190.472 15.4 189.542 15.7967 188.817 16.59C188.092 17.3607 187.729 18.426 187.729 19.786C187.729 21.146 188.092 22.2227 188.817 23.016C189.542 23.7867 190.472 24.172 191.605 24.172ZM212.186 29.306C209.919 29.306 208.151 28.728 206.882 27.572C205.635 26.3933 205.012 24.716 205.012 22.54V3.772H211.472V22.2C211.472 22.88 211.642 23.4013 211.982 23.764C212.344 24.1267 212.843 24.308 213.478 24.308C213.999 24.308 214.486 24.1947 214.94 23.968L215.212 28.83C214.237 29.1473 213.228 29.306 212.186 29.306ZM236.679 10.572V29H230.525V27.164C229.324 28.592 227.51 29.306 225.085 29.306C223.408 29.306 221.878 28.9207 220.495 28.15C219.135 27.3567 218.047 26.2347 217.231 24.784C216.438 23.3333 216.041 21.656 216.041 19.752C216.041 17.848 216.438 16.182 217.231 14.754C218.047 13.3033 219.135 12.1927 220.495 11.422C221.878 10.6513 223.408 10.266 225.085 10.266C227.261 10.266 228.972 10.9007 230.219 12.17V10.572H236.679ZM226.445 24.172C227.578 24.172 228.508 23.7867 229.233 23.016C229.958 22.2227 230.321 21.1347 230.321 19.752C230.321 18.392 229.958 17.3267 229.233 16.556C228.508 15.7853 227.578 15.4 226.445 15.4C225.312 15.4 224.382 15.7853 223.657 16.556C222.932 17.3267 222.569 18.392 222.569 19.752C222.569 21.1347 222.932 22.2227 223.657 23.016C224.382 23.7867 225.312 24.172 226.445 24.172ZM252.704 28.252C252.16 28.592 251.491 28.8527 250.698 29.034C249.927 29.2153 249.1 29.306 248.216 29.306C245.813 29.306 243.966 28.7167 242.674 27.538C241.404 26.3593 240.77 24.6027 240.77 22.268V6.458H247.23V11.252H251.412V16.08H247.23V22.2C247.23 22.88 247.4 23.4013 247.74 23.764C248.08 24.1267 248.544 24.308 249.134 24.308C249.882 24.308 250.539 24.1153 251.106 23.73L252.704 28.252ZM274.132 10.572V29H267.978V27.164C266.777 28.592 264.964 29.306 262.538 29.306C260.861 29.306 259.331 28.9207 257.948 28.15C256.588 27.3567 255.5 26.2347 254.684 24.784C253.891 23.3333 253.494 21.656 253.494 19.752C253.494 17.848 253.891 16.182 254.684 14.754C255.5 13.3033 256.588 12.1927 257.948 11.422C259.331 10.6513 260.861 10.266 262.538 10.266C264.714 10.266 266.426 10.9007 267.672 12.17V10.572H274.132ZM263.898 24.172C265.032 24.172 265.961 23.7867 266.686 23.016C267.412 22.2227 267.774 21.1347 267.774 19.752C267.774 18.392 267.412 17.3267 266.686 16.556C265.961 15.7853 265.032 15.4 263.898 15.4C262.765 15.4 261.836 15.7853 261.11 16.556C260.385 17.3267 260.022 18.392 260.022 19.752C260.022 21.1347 260.385 22.2227 261.11 23.016C261.836 23.7867 262.765 24.172 263.898 24.172ZM284.581 11.252H288.967V16.08H284.751V29H278.291V10.776C278.291 8.532 278.959 6.75267 280.297 5.438C281.657 4.12333 283.549 3.466 285.975 3.466C286.791 3.466 287.584 3.54533 288.355 3.704C289.125 3.86267 289.76 4.10067 290.259 4.418L288.661 8.974C288.026 8.61133 287.38 8.43 286.723 8.43C286.043 8.43 285.51 8.634 285.125 9.042C284.762 9.45 284.581 10.0507 284.581 10.844V11.252ZM300.388 29.306C298.416 29.306 296.637 28.898 295.05 28.082C293.464 27.266 292.217 26.1327 291.31 24.682C290.426 23.2313 289.984 21.588 289.984 19.752C289.984 17.9387 290.426 16.3067 291.31 14.856C292.217 13.4053 293.452 12.2833 295.016 11.49C296.603 10.674 298.394 10.266 300.388 10.266C302.383 10.266 304.174 10.674 305.76 11.49C307.347 12.2833 308.582 13.4053 309.466 14.856C310.35 16.284 310.792 17.916 310.792 19.752C310.792 21.588 310.35 23.2313 309.466 24.682C308.582 26.1327 307.347 27.266 305.76 28.082C304.174 28.898 302.383 29.306 300.388 29.306ZM300.388 24.172C301.522 24.172 302.451 23.7867 303.176 23.016C303.902 22.2227 304.264 21.1347 304.264 19.752C304.264 18.392 303.902 17.3267 303.176 16.556C302.451 15.7853 301.522 15.4 300.388 15.4C299.255 15.4 298.326 15.7853 297.6 16.556C296.875 17.3267 296.512 18.392 296.512 19.752C296.512 21.1347 296.875 22.2227 297.6 23.016C298.326 23.7867 299.255 24.172 300.388 24.172ZM319.939 12.782C320.596 11.9433 321.446 11.32 322.489 10.912C323.554 10.4813 324.767 10.266 326.127 10.266V16.08C325.538 16.012 325.05 15.978 324.665 15.978C323.282 15.978 322.194 16.352 321.401 17.1C320.63 17.848 320.245 18.9927 320.245 20.534V29H313.785V10.572H319.939V12.782ZM352.797 10.266C355.063 10.266 356.865 10.946 358.203 12.306C359.563 13.666 360.243 15.7173 360.243 18.46V29H353.783V19.514C353.783 18.222 353.533 17.27 353.035 16.658C352.559 16.046 351.879 15.74 350.995 15.74C350.02 15.74 349.238 16.08 348.649 16.76C348.059 17.44 347.765 18.4713 347.765 19.854V29H341.305V19.514C341.305 16.998 340.375 15.74 338.517 15.74C337.519 15.74 336.726 16.08 336.137 16.76C335.547 17.44 335.253 18.4713 335.253 19.854V29H328.793V10.572H334.947V12.51C335.627 11.762 336.431 11.2067 337.361 10.844C338.313 10.4587 339.344 10.266 340.455 10.266C341.747 10.266 342.903 10.504 343.923 10.98C344.943 11.456 345.77 12.1813 346.405 13.156C347.13 12.2267 348.048 11.5127 349.159 11.014C350.269 10.5153 351.482 10.266 352.797 10.266ZM384.068 10.572V29H377.914V27.164C376.712 28.592 374.899 29.306 372.474 29.306C370.796 29.306 369.266 28.9207 367.884 28.15C366.524 27.3567 365.436 26.2347 364.62 24.784C363.826 23.3333 363.43 21.656 363.43 19.752C363.43 17.848 363.826 16.182 364.62 14.754C365.436 13.3033 366.524 12.1927 367.884 11.422C369.266 10.6513 370.796 10.266 372.474 10.266C374.65 10.266 376.361 10.9007 377.608 12.17V10.572H384.068ZM373.834 24.172C374.967 24.172 375.896 23.7867 376.622 23.016C377.347 22.2227 377.71 21.1347 377.71 19.752C377.71 18.392 377.347 17.3267 376.622 16.556C375.896 15.7853 374.967 15.4 373.834 15.4C372.7 15.4 371.771 15.7853 371.046 16.556C370.32 17.3267 369.958 18.392 369.958 19.752C369.958 21.1347 370.32 22.2227 371.046 23.016C371.771 23.7867 372.7 24.172 373.834 24.172ZM417.705 3.772V29H411.551V27.164C410.35 28.592 408.548 29.306 406.145 29.306C404.468 29.306 402.938 28.9207 401.555 28.15C400.172 27.3567 399.073 26.2347 398.257 24.784C397.464 23.3333 397.067 21.656 397.067 19.752C397.067 17.848 397.464 16.182 398.257 14.754C399.073 13.3033 400.172 12.1927 401.555 11.422C402.938 10.6513 404.468 10.266 406.145 10.266C408.344 10.266 410.044 10.9007 411.245 12.17V3.772H417.705ZM407.505 24.172C408.616 24.172 409.534 23.7867 410.259 23.016C410.984 22.2227 411.347 21.1347 411.347 19.752C411.347 18.392 410.984 17.3267 410.259 16.556C409.556 15.7853 408.638 15.4 407.505 15.4C406.372 15.4 405.442 15.7853 404.717 16.556C403.992 17.3267 403.629 18.392 403.629 19.752C403.629 21.1347 403.992 22.2227 404.717 23.016C405.442 23.7867 406.372 24.172 407.505 24.172ZM431.721 24.376C432.605 24.376 433.364 24.2513 433.999 24.002C434.656 23.7527 435.314 23.3447 435.971 22.778L439.337 26.314C437.592 28.3087 434.985 29.306 431.517 29.306C429.364 29.306 427.471 28.898 425.839 28.082C424.207 27.266 422.938 26.1327 422.031 24.682C421.147 23.2313 420.705 21.588 420.705 19.752C420.705 17.9387 421.147 16.318 422.031 14.89C422.915 13.4393 424.128 12.306 425.669 11.49C427.233 10.674 428.978 10.266 430.905 10.266C432.696 10.266 434.328 10.64 435.801 11.388C437.297 12.1133 438.487 13.19 439.371 14.618C440.255 16.0233 440.697 17.7007 440.697 19.65L427.539 22.166C428.242 23.6393 429.636 24.376 431.721 24.376ZM430.939 14.856C429.828 14.856 428.922 15.2073 428.219 15.91C427.516 16.59 427.12 17.576 427.029 18.868L434.509 17.406C434.282 16.6353 433.852 16.0233 433.217 15.57C432.582 15.094 431.823 14.856 430.939 14.856ZM14.076 44.266C16.3653 44.266 18.2013 44.946 19.584 46.306C20.9893 47.666 21.692 49.7173 21.692 52.46V63H15.232V53.514C15.232 50.998 14.2233 49.74 12.206 49.74C11.0953 49.74 10.2 50.1027 9.52 50.828C8.86267 51.5533 8.534 52.6413 8.534 54.092V63H2.074V44.572H8.228V46.578C8.95333 45.83 9.81467 45.2633 10.812 44.878C11.8093 44.47 12.8973 44.266 14.076 44.266ZM35.2615 63.306C33.2895 63.306 31.5101 62.898 29.9235 62.082C28.3368 61.266 27.0901 60.1327 26.1835 58.682C25.2995 57.2313 24.8575 55.588 24.8575 53.752C24.8575 51.9387 25.2995 50.3067 26.1835 48.856C27.0901 47.4053 28.3255 46.2833 29.8895 45.49C31.4761 44.674 33.2668 44.266 35.2615 44.266C37.2561 44.266 39.0468 44.674 40.6335 45.49C42.2201 46.2833 43.4555 47.4053 44.3395 48.856C45.2235 50.284 45.6655 51.916 45.6655 53.752C45.6655 55.588 45.2235 57.2313 44.3395 58.682C43.4555 60.1327 42.2201 61.266 40.6335 62.082C39.0468 62.898 37.2561 63.306 35.2615 63.306ZM35.2615 58.172C36.3948 58.172 37.3241 57.7867 38.0495 57.016C38.7748 56.2227 39.1375 55.1347 39.1375 53.752C39.1375 52.392 38.7748 51.3267 38.0495 50.556C37.3241 49.7853 36.3948 49.4 35.2615 49.4C34.1281 49.4 33.1988 49.7853 32.4735 50.556C31.7481 51.3267 31.3855 52.392 31.3855 53.752C31.3855 55.1347 31.7481 56.2227 32.4735 57.016C33.1988 57.7867 34.1281 58.172 35.2615 58.172ZM60.524 62.252C59.98 62.592 59.3113 62.8527 58.518 63.034C57.7473 63.2153 56.92 63.306 56.036 63.306C53.6333 63.306 51.786 62.7167 50.494 61.538C49.2247 60.3593 48.59 58.6027 48.59 56.268V40.458H55.05V45.252H59.232V50.08H55.05V56.2C55.05 56.88 55.22 57.4013 55.56 57.764C55.9 58.1267 56.3647 58.308 56.954 58.308C57.702 58.308 58.3593 58.1153 58.926 57.73L60.524 62.252ZM63.0017 44.572H69.4617V63H63.0017V44.572ZM67.4557 37.194H73.9157L67.5237 42.362H62.8997L67.4557 37.194ZM83.0779 63.306C81.0379 63.306 79.2133 62.898 77.6039 62.082C75.9946 61.266 74.7366 60.1327 73.8299 58.682C72.9459 57.2313 72.5039 55.588 72.5039 53.752C72.5039 51.916 72.9459 50.284 73.8299 48.856C74.7366 47.4053 75.9946 46.2833 77.6039 45.49C79.2133 44.674 81.0379 44.266 83.0779 44.266C85.1633 44.266 86.9653 44.7193 88.4839 45.626C90.0026 46.51 91.0793 47.7453 91.7139 49.332L86.7159 51.882C85.8773 50.2273 84.6533 49.4 83.0439 49.4C81.8879 49.4 80.9246 49.7853 80.1539 50.556C79.4059 51.3267 79.0319 52.392 79.0319 53.752C79.0319 55.1347 79.4059 56.2227 80.1539 57.016C80.9246 57.7867 81.8879 58.172 83.0439 58.172C84.6533 58.172 85.8773 57.3447 86.7159 55.69L91.7139 58.24C91.0793 59.8267 90.0026 61.0733 88.4839 61.98C86.9653 62.864 85.1633 63.306 83.0779 63.306ZM94.1463 44.572H100.606V63H94.1463V44.572ZM97.3763 42.532C96.1976 42.532 95.2456 42.2033 94.5203 41.546C93.7949 40.8887 93.4323 40.0727 93.4323 39.098C93.4323 38.1233 93.7949 37.3073 94.5203 36.65C95.2456 35.9927 96.1976 35.664 97.3763 35.664C98.5549 35.664 99.5069 35.9813 100.232 36.616C100.958 37.228 101.32 38.0213 101.32 38.996C101.32 40.016 100.958 40.866 100.232 41.546C99.5069 42.2033 98.5549 42.532 97.3763 42.532ZM124.286 44.572V63H118.132V61.164C116.931 62.592 115.118 63.306 112.692 63.306C111.015 63.306 109.485 62.9207 108.102 62.15C106.742 61.3567 105.654 60.2347 104.838 58.784C104.045 57.3333 103.648 55.656 103.648 53.752C103.648 51.848 104.045 50.182 104.838 48.754C105.654 47.3033 106.742 46.1927 108.102 45.422C109.485 44.6513 111.015 44.266 112.692 44.266C114.868 44.266 116.58 44.9007 117.826 46.17V44.572H124.286ZM114.052 58.172C115.186 58.172 116.115 57.7867 116.84 57.016C117.566 56.2227 117.928 55.1347 117.928 53.752C117.928 52.392 117.566 51.3267 116.84 50.556C116.115 49.7853 115.186 49.4 114.052 49.4C112.919 49.4 111.99 49.7853 111.264 50.556C110.539 51.3267 110.176 52.392 110.176 53.752C110.176 55.1347 110.539 56.2227 111.264 57.016C111.99 57.7867 112.919 58.172 114.052 58.172ZM135.143 63.306C133.602 63.306 132.083 63.136 130.587 62.796C129.091 62.4333 127.89 61.9687 126.983 61.402L128.921 56.982C129.76 57.5033 130.757 57.9227 131.913 58.24C133.069 58.5347 134.214 58.682 135.347 58.682C136.39 58.682 137.126 58.58 137.557 58.376C138.01 58.1493 138.237 57.832 138.237 57.424C138.237 57.016 137.965 56.7327 137.421 56.574C136.9 56.3927 136.061 56.2227 134.905 56.064C133.432 55.8827 132.174 55.6447 131.131 55.35C130.111 55.0553 129.227 54.5113 128.479 53.718C127.731 52.9247 127.357 51.814 127.357 50.386C127.357 49.2073 127.708 48.1647 128.411 47.258C129.114 46.3287 130.134 45.6033 131.471 45.082C132.831 44.538 134.452 44.266 136.333 44.266C137.67 44.266 138.996 44.402 140.311 44.674C141.626 44.946 142.725 45.3313 143.609 45.83L141.671 50.216C140.039 49.3093 138.271 48.856 136.367 48.856C135.347 48.856 134.599 48.9807 134.123 49.23C133.647 49.4567 133.409 49.7627 133.409 50.148C133.409 50.5787 133.67 50.8847 134.191 51.066C134.712 51.2247 135.574 51.3947 136.775 51.576C138.294 51.8027 139.552 52.0633 140.549 52.358C141.546 52.6527 142.408 53.1967 143.133 53.99C143.881 54.7607 144.255 55.8487 144.255 57.254C144.255 58.41 143.904 59.4527 143.201 60.382C142.498 61.2887 141.456 62.0027 140.073 62.524C138.713 63.0453 137.07 63.306 135.143 63.306ZM176.517 37.772V63H170.363V61.164C169.162 62.592 167.36 63.306 164.957 63.306C163.28 63.306 161.75 62.9207 160.367 62.15C158.985 61.3567 157.885 60.2347 157.069 58.784C156.276 57.3333 155.879 55.656 155.879 53.752C155.879 51.848 156.276 50.182 157.069 48.754C157.885 47.3033 158.985 46.1927 160.367 45.422C161.75 44.6513 163.28 44.266 164.957 44.266C167.156 44.266 168.856 44.9007 170.057 46.17V37.772H176.517ZM166.317 58.172C167.428 58.172 168.346 57.7867 169.071 57.016C169.797 56.2227 170.159 55.1347 170.159 53.752C170.159 52.392 169.797 51.3267 169.071 50.556C168.369 49.7853 167.451 49.4 166.317 49.4C165.184 49.4 164.255 49.7853 163.529 50.556C162.804 51.3267 162.441 52.392 162.441 53.752C162.441 55.1347 162.804 56.2227 163.529 57.016C164.255 57.7867 165.184 58.172 166.317 58.172ZM189.922 63.306C187.95 63.306 186.17 62.898 184.584 62.082C182.997 61.266 181.75 60.1327 180.844 58.682C179.96 57.2313 179.518 55.588 179.518 53.752C179.518 51.9387 179.96 50.3067 180.844 48.856C181.75 47.4053 182.986 46.2833 184.55 45.49C186.136 44.674 187.927 44.266 189.922 44.266C191.916 44.266 193.707 44.674 195.294 45.49C196.88 46.2833 198.116 47.4053 199 48.856C199.884 50.284 200.326 51.916 200.326 53.752C200.326 55.588 199.884 57.2313 199 58.682C198.116 60.1327 196.88 61.266 195.294 62.082C193.707 62.898 191.916 63.306 189.922 63.306ZM189.922 58.172C191.055 58.172 191.984 57.7867 192.71 57.016C193.435 56.2227 193.798 55.1347 193.798 53.752C193.798 52.392 193.435 51.3267 192.71 50.556C191.984 49.7853 191.055 49.4 189.922 49.4C188.788 49.4 187.859 49.7853 187.134 50.556C186.408 51.3267 186.046 52.392 186.046 53.752C186.046 55.1347 186.408 56.2227 187.134 57.016C187.859 57.7867 188.788 58.172 189.922 58.172ZM237.217 44.266C239.483 44.266 241.285 44.946 242.623 46.306C243.983 47.666 244.663 49.7173 244.663 52.46V63H238.203V53.514C238.203 52.222 237.953 51.27 237.455 50.658C236.979 50.046 236.299 49.74 235.415 49.74C234.44 49.74 233.658 50.08 233.069 50.76C232.479 51.44 232.185 52.4713 232.185 53.854V63H225.725V53.514C225.725 50.998 224.795 49.74 222.937 49.74C221.939 49.74 221.146 50.08 220.557 50.76C219.967 51.44 219.673 52.4713 219.673 53.854V63H213.213V44.572H219.367V46.51C220.047 45.762 220.851 45.2067 221.781 44.844C222.733 44.4587 223.764 44.266 224.875 44.266C226.167 44.266 227.323 44.504 228.343 44.98C229.363 45.456 230.19 46.1813 230.825 47.156C231.55 46.2267 232.468 45.5127 233.579 45.014C234.689 44.5153 235.902 44.266 237.217 44.266ZM268.12 44.572V63H261.966V61.028C261.286 61.776 260.47 62.3427 259.518 62.728C258.566 63.1133 257.557 63.306 256.492 63.306C254.112 63.306 252.208 62.6033 250.78 61.198C249.375 59.7927 248.672 57.6847 248.672 54.874V44.572H255.132V53.82C255.132 55.2027 255.393 56.2113 255.914 56.846C256.435 57.4807 257.195 57.798 258.192 57.798C259.212 57.798 260.039 57.4467 260.674 56.744C261.331 56.0187 261.66 54.9193 261.66 53.446V44.572H268.12ZM284.283 44.266C286.572 44.266 288.408 44.946 289.791 46.306C291.196 47.666 291.899 49.7173 291.899 52.46V63H285.439V53.514C285.439 50.998 284.43 49.74 282.413 49.74C281.302 49.74 280.407 50.1027 279.727 50.828C279.07 51.5533 278.741 52.6413 278.741 54.092V63H272.281V44.572H278.435V46.578C279.16 45.83 280.022 45.2633 281.019 44.878C282.016 44.47 283.104 44.266 284.283 44.266ZM315.804 37.772V63H309.65V61.164C308.449 62.592 306.647 63.306 304.244 63.306C302.567 63.306 301.037 62.9207 299.654 62.15C298.272 61.3567 297.172 60.2347 296.356 58.784C295.563 57.3333 295.166 55.656 295.166 53.752C295.166 51.848 295.563 50.182 296.356 48.754C297.172 47.3033 298.272 46.1927 299.654 45.422C301.037 44.6513 302.567 44.266 304.244 44.266C306.443 44.266 308.143 44.9007 309.344 46.17V37.772H315.804ZM305.604 58.172C306.715 58.172 307.633 57.7867 308.358 57.016C309.084 56.2227 309.446 55.1347 309.446 53.752C309.446 52.392 309.084 51.3267 308.358 50.556C307.656 49.7853 306.738 49.4 305.604 49.4C304.471 49.4 303.542 49.7853 302.816 50.556C302.091 51.3267 301.728 52.392 301.728 53.752C301.728 55.1347 302.091 56.2227 302.816 57.016C303.542 57.7867 304.471 58.172 305.604 58.172ZM329.209 63.306C327.237 63.306 325.457 62.898 323.871 62.082C322.284 61.266 321.037 60.1327 320.131 58.682C319.247 57.2313 318.805 55.588 318.805 53.752C318.805 51.9387 319.247 50.3067 320.131 48.856C321.037 47.4053 322.273 46.2833 323.837 45.49C325.423 44.674 327.214 44.266 329.209 44.266C331.203 44.266 332.994 44.674 334.581 45.49C336.167 46.2833 337.403 47.4053 338.287 48.856C339.171 50.284 339.613 51.916 339.613 53.752C339.613 55.588 339.171 57.2313 338.287 58.682C337.403 60.1327 336.167 61.266 334.581 62.082C332.994 62.898 331.203 63.306 329.209 63.306ZM329.209 58.172C330.342 58.172 331.271 57.7867 331.997 57.016C332.722 56.2227 333.085 55.1347 333.085 53.752C333.085 52.392 332.722 51.3267 331.997 50.556C331.271 49.7853 330.342 49.4 329.209 49.4C328.075 49.4 327.146 49.7853 326.421 50.556C325.695 51.3267 325.333 52.392 325.333 53.752C325.333 55.1347 325.695 56.2227 326.421 57.016C327.146 57.7867 328.075 58.172 329.209 58.172ZM372.084 37.772V63H365.93V61.164C364.728 62.592 362.926 63.306 360.524 63.306C358.846 63.306 357.316 62.9207 355.934 62.15C354.551 61.3567 353.452 60.2347 352.636 58.784C351.842 57.3333 351.446 55.656 351.446 53.752C351.446 51.848 351.842 50.182 352.636 48.754C353.452 47.3033 354.551 46.1927 355.934 45.422C357.316 44.6513 358.846 44.266 360.524 44.266C362.722 44.266 364.422 44.9007 365.624 46.17V37.772H372.084ZM361.884 58.172C362.994 58.172 363.912 57.7867 364.638 57.016C365.363 56.2227 365.726 55.1347 365.726 53.752C365.726 52.392 365.363 51.3267 364.638 50.556C363.935 49.7853 363.017 49.4 361.884 49.4C360.75 49.4 359.821 49.7853 359.096 50.556C358.37 51.3267 358.008 52.392 358.008 53.752C358.008 55.1347 358.37 56.2227 359.096 57.016C359.821 57.7867 360.75 58.172 361.884 58.172ZM395.722 44.572V63H389.568V61.164C388.367 62.592 386.553 63.306 384.128 63.306C382.451 63.306 380.921 62.9207 379.538 62.15C378.178 61.3567 377.09 60.2347 376.274 58.784C375.481 57.3333 375.084 55.656 375.084 53.752C375.084 51.848 375.481 50.182 376.274 48.754C377.09 47.3033 378.178 46.1927 379.538 45.422C380.921 44.6513 382.451 44.266 384.128 44.266C386.304 44.266 388.015 44.9007 389.262 46.17V44.572H395.722ZM385.488 58.172C386.621 58.172 387.551 57.7867 388.276 57.016C389.001 56.2227 389.364 55.1347 389.364 53.752C389.364 52.392 389.001 51.3267 388.276 50.556C387.551 49.7853 386.621 49.4 385.488 49.4C384.355 49.4 383.425 49.7853 382.7 50.556C381.975 51.3267 381.612 52.392 381.612 53.752C381.612 55.1347 381.975 56.2227 382.7 57.016C383.425 57.7867 384.355 58.172 385.488 58.172ZM9.248 97.306C6.98133 97.306 5.21333 96.728 3.944 95.572C2.69733 94.3933 2.074 92.716 2.074 90.54V71.772H8.534V90.2C8.534 90.88 8.704 91.4013 9.044 91.764C9.40667 92.1267 9.90533 92.308 10.54 92.308C11.0613 92.308 11.5487 92.1947 12.002 91.968L12.274 96.83C11.2993 97.1473 10.2907 97.306 9.248 97.306ZM14.5916 78.572H21.0516V97H14.5916V78.572ZM17.8216 76.532C16.6429 76.532 15.6909 76.2033 14.9656 75.546C14.2402 74.8887 13.8776 74.0727 13.8776 73.098C13.8776 72.1233 14.2402 71.3073 14.9656 70.65C15.6909 69.9927 16.6429 69.664 17.8216 69.664C19.0002 69.664 19.9522 69.9813 20.6776 70.616C21.4029 71.228 21.7656 72.0213 21.7656 72.996C21.7656 74.016 21.4029 74.866 20.6776 75.546C19.9522 76.2033 19.0002 76.532 17.8216 76.532ZM37.1158 96.252C36.5718 96.592 35.9031 96.8527 35.1098 97.034C34.3391 97.2153 33.5118 97.306 32.6278 97.306C30.2251 97.306 28.3778 96.7167 27.0858 95.538C25.8164 94.3593 25.1818 92.6027 25.1818 90.268V74.458H31.6418V79.252H35.8238V84.08H31.6418V90.2C31.6418 90.88 31.8118 91.4013 32.1518 91.764C32.4918 92.1267 32.9564 92.308 33.5458 92.308C34.2938 92.308 34.9511 92.1153 35.5178 91.73L37.1158 96.252ZM48.9223 92.376C49.8063 92.376 50.5656 92.2513 51.2003 92.002C51.8576 91.7527 52.5149 91.3447 53.1723 90.778L56.5383 94.314C54.7929 96.3087 52.1863 97.306 48.7183 97.306C46.5649 97.306 44.6723 96.898 43.0403 96.082C41.4083 95.266 40.1389 94.1327 39.2323 92.682C38.3483 91.2313 37.9063 89.588 37.9063 87.752C37.9063 85.9387 38.3483 84.318 39.2323 82.89C40.1163 81.4393 41.3289 80.306 42.8703 79.49C44.4343 78.674 46.1796 78.266 48.1063 78.266C49.8969 78.266 51.5289 78.64 53.0023 79.388C54.4983 80.1133 55.6883 81.19 56.5723 82.618C57.4563 84.0233 57.8983 85.7007 57.8983 87.65L44.7403 90.166C45.4429 91.6393 46.8369 92.376 48.9223 92.376ZM48.1403 82.856C47.0296 82.856 46.1229 83.2073 45.4203 83.91C44.7176 84.59 44.3209 85.576 44.2303 86.868L51.7103 85.406C51.4836 84.6353 51.0529 84.0233 50.4183 83.57C49.7836 83.094 49.0243 82.856 48.1403 82.856ZM67.0307 80.782C67.6881 79.9433 68.5381 79.32 69.5807 78.912C70.6461 78.4813 71.8587 78.266 73.2187 78.266V84.08C72.6294 84.012 72.1421 83.978 71.7567 83.978C70.3741 83.978 69.2861 84.352 68.4927 85.1C67.7221 85.848 67.3367 86.9927 67.3367 88.534V97H60.8767V78.572H67.0307V80.782ZM95.2005 78.572V97H89.0465V95.164C87.8452 96.592 86.0319 97.306 83.6065 97.306C81.9292 97.306 80.3992 96.9207 79.0165 96.15C77.6565 95.3567 76.5685 94.2347 75.7525 92.784C74.9592 91.3333 74.5625 89.656 74.5625 87.752C74.5625 85.848 74.9592 84.182 75.7525 82.754C76.5685 81.3033 77.6565 80.1927 79.0165 79.422C80.3992 78.6513 81.9292 78.266 83.6065 78.266C85.7825 78.266 87.4939 78.9007 88.7405 80.17V78.572H95.2005ZM84.9665 92.172C86.0999 92.172 87.0292 91.7867 87.7545 91.016C88.4799 90.2227 88.8425 89.1347 88.8425 87.752C88.8425 86.392 88.4799 85.3267 87.7545 84.556C87.0292 83.7853 86.0999 83.4 84.9665 83.4C83.8332 83.4 82.9039 83.7853 82.1785 84.556C81.4532 85.3267 81.0905 86.392 81.0905 87.752C81.0905 89.1347 81.4532 90.2227 82.1785 91.016C82.9039 91.7867 83.8332 92.172 84.9665 92.172ZM111.225 96.252C110.681 96.592 110.012 96.8527 109.219 97.034C108.448 97.2153 107.621 97.306 106.737 97.306C104.334 97.306 102.487 96.7167 101.195 95.538C99.9258 94.3593 99.2912 92.6027 99.2912 90.268V74.458H105.751V79.252H109.933V84.08H105.751V90.2C105.751 90.88 105.921 91.4013 106.261 91.764C106.601 92.1267 107.066 92.308 107.655 92.308C108.403 92.308 109.06 92.1153 109.627 91.73L111.225 96.252ZM133.083 78.572V97H126.929V95.028C126.249 95.776 125.433 96.3427 124.481 96.728C123.529 97.1133 122.52 97.306 121.455 97.306C119.075 97.306 117.171 96.6033 115.743 95.198C114.338 93.7927 113.635 91.6847 113.635 88.874V78.572H120.095V87.82C120.095 89.2027 120.356 90.2113 120.877 90.846C121.398 91.4807 122.158 91.798 123.155 91.798C124.175 91.798 125.002 91.4467 125.637 90.744C126.294 90.0187 126.623 88.9193 126.623 87.446V78.572H133.083ZM143.398 80.782C144.055 79.9433 144.905 79.32 145.948 78.912C147.013 78.4813 148.226 78.266 149.586 78.266V84.08C148.997 84.012 148.509 83.978 148.124 83.978C146.741 83.978 145.653 84.352 144.86 85.1C144.089 85.848 143.704 86.9927 143.704 88.534V97H137.244V78.572H143.398V80.782ZM171.568 78.572V97H165.414V95.164C164.212 96.592 162.399 97.306 159.974 97.306C158.296 97.306 156.766 96.9207 155.384 96.15C154.024 95.3567 152.936 94.2347 152.12 92.784C151.326 91.3333 150.93 89.656 150.93 87.752C150.93 85.848 151.326 84.182 152.12 82.754C152.936 81.3033 154.024 80.1927 155.384 79.422C156.766 78.6513 158.296 78.266 159.974 78.266C162.15 78.266 163.861 78.9007 165.108 80.17V78.572H171.568ZM161.334 92.172C162.467 92.172 163.396 91.7867 164.122 91.016C164.847 90.2227 165.21 89.1347 165.21 87.752C165.21 86.392 164.847 85.3267 164.122 84.556C163.396 83.7853 162.467 83.4 161.334 83.4C160.2 83.4 159.271 83.7853 158.546 84.556C157.82 85.3267 157.458 86.392 157.458 87.752C157.458 89.1347 157.82 90.2227 158.546 91.016C159.271 91.7867 160.2 92.172 161.334 92.172Z" fill="#2A3DA3"/>
<g clip-path="url(#clip0_328_113)">
<path d="M251.961 378.313H161.039C160.721 378.312 160.416 378.185 160.191 377.96C159.966 377.735 159.84 377.43 159.84 377.111V276.896C159.84 276.577 159.966 276.272 160.191 276.046C160.416 275.821 160.721 275.694 161.039 275.694H251.961C252.279 275.694 252.584 275.821 252.809 276.046C253.033 276.272 253.16 276.577 253.16 276.896V377.111C253.16 377.43 253.033 377.735 252.809 377.96C252.584 378.185 252.279 378.312 251.961 378.313Z" fill="white"/>
<path d="M251.961 378.313H161.039C160.721 378.312 160.416 378.185 160.191 377.96C159.966 377.735 159.84 377.43 159.84 377.111V276.896C159.84 276.577 159.966 276.272 160.191 276.046C160.416 275.821 160.721 275.694 161.039 275.694H251.961C252.279 275.694 252.584 275.821 252.809 276.046C253.033 276.272 253.16 276.577 253.16 276.896V377.111C253.16 377.43 253.033 377.735 252.809 377.96C252.584 378.185 252.279 378.312 251.961 378.313ZM161.039 276.175C160.848 276.175 160.665 276.251 160.53 276.386C160.395 276.521 160.32 276.705 160.319 276.896V377.111C160.32 377.302 160.395 377.485 160.53 377.621C160.665 377.756 160.848 377.832 161.039 377.832H251.961C252.152 377.832 252.335 377.756 252.469 377.621C252.604 377.485 252.68 377.302 252.681 377.111V276.896C252.68 276.705 252.604 276.521 252.469 276.386C252.335 276.251 252.152 276.175 251.961 276.175H161.039Z" fill="#3F3D56"/>
<path d="M200.263 313.906H177.712C177.394 313.905 177.089 313.779 176.864 313.553C176.64 313.328 176.513 313.023 176.513 312.704V290.113C176.513 289.795 176.64 289.489 176.864 289.264C177.089 289.039 177.394 288.912 177.712 288.912H200.263C200.581 288.912 200.886 289.039 201.11 289.264C201.335 289.489 201.462 289.795 201.462 290.113V312.704C201.462 313.023 201.335 313.328 201.11 313.553C200.886 313.779 200.581 313.905 200.263 313.906ZM177.712 289.393C177.521 289.393 177.338 289.469 177.204 289.604C177.069 289.739 176.993 289.922 176.992 290.113V312.704C176.993 312.895 177.069 313.078 177.204 313.214C177.338 313.349 177.521 313.425 177.712 313.425H200.263C200.454 313.425 200.636 313.349 200.771 313.214C200.906 313.078 200.982 312.895 200.982 312.704V290.113C200.982 289.922 200.906 289.739 200.771 289.604C200.636 289.469 200.454 289.393 200.263 289.393H177.712Z" fill="#F2F2F2"/>
<path d="M193.785 316.669H171.235C170.949 316.669 170.674 316.555 170.472 316.352C170.269 316.149 170.156 315.875 170.155 315.588V292.997C170.156 292.711 170.269 292.436 170.472 292.233C170.674 292.03 170.949 291.916 171.235 291.916H193.785C194.072 291.916 194.346 292.03 194.548 292.233C194.751 292.436 194.865 292.711 194.865 292.997V315.588C194.865 315.875 194.751 316.149 194.548 316.352C194.346 316.555 194.072 316.669 193.785 316.669Z" fill="#2A3DA3"/>
<path d="M241.765 327.724H171.235C171.093 327.725 170.952 327.697 170.821 327.643C170.69 327.588 170.571 327.509 170.47 327.408C170.37 327.308 170.29 327.189 170.235 327.057C170.181 326.926 170.153 326.785 170.153 326.643C170.153 326.501 170.181 326.36 170.235 326.228C170.29 326.097 170.37 325.978 170.47 325.877C170.571 325.777 170.69 325.697 170.821 325.643C170.952 325.589 171.093 325.561 171.235 325.561H241.765C242.052 325.561 242.326 325.675 242.529 325.878C242.731 326.081 242.845 326.356 242.845 326.643C242.845 326.93 242.731 327.205 242.529 327.408C242.326 327.61 242.052 327.724 241.765 327.724Z" fill="#CCCCCC"/>
<path d="M224.732 335.174H171.235C171.093 335.175 170.952 335.147 170.821 335.093C170.69 335.038 170.571 334.959 170.47 334.858C170.37 334.758 170.29 334.639 170.235 334.507C170.181 334.376 170.153 334.235 170.153 334.093C170.153 333.951 170.181 333.81 170.235 333.678C170.29 333.547 170.37 333.428 170.47 333.327C170.571 333.227 170.69 333.147 170.821 333.093C170.952 333.039 171.093 333.011 171.235 333.011H224.732C225.019 333.011 225.293 333.125 225.496 333.328C225.698 333.531 225.812 333.806 225.812 334.093C225.812 334.38 225.698 334.655 225.496 334.858C225.293 335.06 225.019 335.174 224.732 335.174Z" fill="#CCCCCC"/>
<path d="M241.525 300.327H210.338C210.052 300.327 209.777 300.213 209.575 300.011C209.373 299.808 209.259 299.533 209.259 299.246C209.259 298.959 209.373 298.684 209.575 298.481C209.777 298.278 210.052 298.164 210.338 298.164H241.525C241.667 298.164 241.808 298.192 241.939 298.246C242.07 298.3 242.19 298.38 242.29 298.48C242.391 298.581 242.47 298.7 242.525 298.831C242.579 298.963 242.607 299.104 242.607 299.246C242.607 299.388 242.579 299.529 242.525 299.66C242.47 299.792 242.391 299.911 242.29 300.011C242.19 300.112 242.07 300.191 241.939 300.246C241.808 300.3 241.667 300.328 241.525 300.327Z" fill="#2A3DA3"/>
<path d="M233.742 307.777H210.338C210.052 307.777 209.777 307.663 209.575 307.461C209.373 307.258 209.259 306.983 209.259 306.696C209.259 306.409 209.373 306.134 209.575 305.931C209.777 305.728 210.052 305.614 210.338 305.614H233.742C234.028 305.614 234.303 305.728 234.505 305.931C234.708 306.134 234.822 306.409 234.822 306.696C234.822 306.983 234.708 307.258 234.505 307.461C234.303 307.663 234.028 307.777 233.742 307.777Z" fill="#2A3DA3"/>
<path d="M241.765 342.624H171.235C170.949 342.624 170.674 342.51 170.471 342.308C170.269 342.105 170.155 341.83 170.155 341.543C170.155 341.256 170.269 340.981 170.471 340.778C170.674 340.575 170.949 340.461 171.235 340.461H241.765C241.907 340.461 242.048 340.489 242.179 340.543C242.31 340.597 242.429 340.677 242.53 340.777C242.63 340.878 242.71 340.997 242.765 341.129C242.819 341.26 242.847 341.401 242.847 341.543C242.847 341.685 242.819 341.826 242.765 341.957C242.71 342.089 242.63 342.208 242.53 342.308C242.429 342.409 242.31 342.488 242.179 342.543C242.048 342.597 241.907 342.625 241.765 342.624Z" fill="#CCCCCC"/>
<path d="M224.732 350.074H171.235C170.949 350.074 170.674 349.96 170.471 349.758C170.269 349.555 170.155 349.28 170.155 348.993C170.155 348.706 170.269 348.431 170.471 348.228C170.674 348.025 170.949 347.912 171.235 347.912H224.732C224.874 347.911 225.015 347.939 225.146 347.993C225.277 348.047 225.397 348.127 225.497 348.227C225.598 348.328 225.677 348.447 225.732 348.579C225.786 348.71 225.814 348.851 225.814 348.993C225.814 349.135 225.786 349.276 225.732 349.407C225.677 349.539 225.598 349.658 225.497 349.758C225.397 349.859 225.277 349.939 225.146 349.993C225.015 350.047 224.874 350.075 224.732 350.074Z" fill="#CCCCCC"/>
<path d="M241.765 357.524H171.235C171.093 357.525 170.952 357.497 170.821 357.443C170.69 357.389 170.571 357.309 170.47 357.209C170.37 357.108 170.29 356.989 170.235 356.857C170.181 356.726 170.153 356.585 170.153 356.443C170.153 356.301 170.181 356.16 170.235 356.029C170.29 355.897 170.37 355.778 170.47 355.678C170.571 355.577 170.69 355.497 170.821 355.443C170.952 355.389 171.093 355.361 171.235 355.362H241.765C242.052 355.362 242.326 355.475 242.529 355.678C242.731 355.881 242.845 356.156 242.845 356.443C242.845 356.73 242.731 357.005 242.529 357.208C242.326 357.411 242.052 357.524 241.765 357.524Z" fill="#CCCCCC"/>
<path d="M241.765 364.975H171.235C170.949 364.975 170.674 364.861 170.471 364.658C170.269 364.455 170.155 364.18 170.155 363.893C170.155 363.606 170.269 363.331 170.471 363.128C170.674 362.926 170.949 362.812 171.235 362.812H241.765C242.051 362.812 242.326 362.926 242.529 363.128C242.731 363.331 242.845 363.606 242.845 363.893C242.845 364.18 242.731 364.455 242.529 364.658C242.326 364.861 242.051 364.975 241.765 364.975Z" fill="#CCCCCC"/>
<path d="M140.882 422.706C140.884 436.824 136.643 450.616 128.709 462.285C120.776 473.953 109.519 482.958 96.4039 488.126C95.3752 488.539 94.3275 488.924 93.275 489.28C92.0993 489.684 90.911 490.054 89.71 490.391C88.8756 490.624 88.0333 490.842 87.1832 491.047C74.3851 494.119 60.9845 493.546 48.494 489.394C47.5126 489.066 46.5408 488.715 45.5784 488.349C44.2842 487.85 43.0042 487.314 41.7479 486.739C41.6531 486.701 41.563 486.658 41.4729 486.616C40.9799 486.388 40.5011 486.16 40.0128 485.918H40.008C39.3396 485.595 38.6775 485.259 38.0217 484.911C36.5141 484.113 35.0398 483.263 33.5986 482.36C32.8496 481.895 32.1116 481.412 31.3847 480.912C19.9436 473.174 11.0366 462.225 5.77963 449.438C0.522654 436.651 -0.850474 422.594 1.83229 409.029C4.51505 395.463 11.1344 382.993 20.8609 373.18C30.5875 363.366 42.9886 356.647 56.5106 353.863C57.7479 353.606 58.9979 353.385 60.2605 353.198C61.0522 353.074 61.8534 352.97 62.6546 352.88C63.2282 352.813 63.8019 352.751 64.385 352.704H64.3897C65.9494 352.562 67.5233 352.473 69.1115 352.438C69.3296 352.433 69.5476 352.429 69.7704 352.424C69.8937 352.424 70.017 352.419 70.1402 352.424H70.145C70.3346 352.419 70.5242 352.419 70.7186 352.419C71.515 352.419 72.3115 352.433 73.1032 352.462C74.8478 352.519 76.5734 352.639 78.2801 352.823C79.2662 352.927 80.238 353.055 81.2099 353.198C81.3189 353.217 81.4327 353.231 81.5417 353.25C81.8641 353.302 82.1912 353.355 82.5136 353.412C83.1962 353.521 83.8742 353.649 84.5521 353.787C85.1873 353.915 85.8179 354.048 86.4484 354.19C88.7787 354.723 91.0796 355.378 93.3414 356.152C108.671 361.402 121.722 371.79 130.291 385.563C130.533 385.948 130.77 386.337 131.002 386.732C131.182 387.026 131.353 387.321 131.523 387.62C131.585 387.719 131.642 387.819 131.694 387.919C131.732 387.976 131.76 388.033 131.794 388.09C132.106 388.636 132.41 389.192 132.704 389.747C138.09 399.894 140.899 411.214 140.882 422.706Z" fill="white"/>
<path d="M70.7258 493.471C63.1197 493.471 55.563 492.246 48.3445 489.845C47.4138 489.534 46.4542 489.19 45.4102 488.793C44.093 488.286 42.7952 487.74 41.5508 487.171C41.468 487.138 41.3696 487.092 41.2712 487.046C40.7993 486.827 40.3379 486.608 39.8687 486.376L39.8021 486.345C39.1364 486.024 38.4626 485.682 37.7996 485.331C36.2896 484.531 34.7914 483.667 33.3471 482.763C32.5956 482.296 31.8445 481.805 31.116 481.303C19.5983 473.512 10.6319 462.49 5.34008 449.616C0.0482544 436.743 -1.33362 422.591 1.36759 408.935C4.0688 395.278 10.733 382.724 20.5251 372.844C30.3173 362.965 42.802 356.2 56.415 353.398C57.6562 353.14 58.9269 352.915 60.1911 352.728C60.9399 352.611 61.7521 352.503 62.6015 352.408C63.1789 352.341 63.7578 352.279 64.3464 352.231C65.9086 352.089 67.5082 351.998 69.1009 351.963L69.8876 351.948C69.9777 351.947 70.0678 351.946 70.1579 351.949C70.3267 351.944 70.5201 351.944 70.7184 351.944C71.5205 351.944 72.3285 351.959 73.1201 351.987C74.8686 352.044 76.6222 352.167 78.3306 352.351C79.2351 352.446 80.1995 352.57 81.2783 352.728L81.7341 352.8C82.0207 352.847 82.3101 352.893 82.5958 352.944C83.2106 353.042 83.8645 353.163 84.6461 353.321C85.2844 353.45 85.9184 353.584 86.5526 353.727C88.8993 354.264 91.2164 354.923 93.4944 355.703C108.919 361.002 122.054 371.458 130.693 385.312C130.936 385.699 131.175 386.091 131.41 386.49C131.589 386.782 131.762 387.081 131.935 387.384C131.99 387.473 132.049 387.575 132.103 387.678C132.13 387.72 132.153 387.761 132.176 387.803L132.203 387.851C132.501 388.371 132.801 388.918 133.123 389.525C137.786 398.331 140.541 408.024 141.206 417.97C141.871 427.916 140.431 437.891 136.981 447.241C133.531 456.591 128.148 465.106 121.186 472.228C114.223 479.35 105.837 484.918 96.5773 488.568C95.5733 488.971 94.5122 489.363 93.4266 489.73C92.2509 490.134 91.0428 490.51 89.8378 490.848C89.0033 491.081 88.1475 491.303 87.2936 491.509C81.867 492.812 76.3062 493.47 70.7258 493.471ZM40.1164 485.443H40.1189L40.2231 485.492C40.7074 485.732 41.1824 485.958 41.6714 486.184C41.7576 486.225 41.8386 486.264 41.924 486.298C43.1715 486.868 44.4513 487.406 45.7484 487.906C46.7783 488.297 47.7261 488.637 48.6438 488.943C61.0497 493.071 74.3609 493.64 87.0725 490.585C87.9153 490.382 88.7599 490.163 89.5826 489.934C90.7696 489.6 91.9604 489.229 93.1211 488.831C94.1922 488.468 95.2366 488.083 96.2273 487.685C109.286 482.599 120.498 473.666 128.385 462.065C136.273 450.465 140.464 436.742 140.407 422.706V422.706C140.414 411.292 137.625 400.052 132.285 389.97C131.969 389.372 131.673 388.834 131.382 388.326L131.347 388.264C131.332 388.237 131.318 388.21 131.3 388.183L131.274 388.139C131.227 388.05 131.176 387.96 131.12 387.87C130.943 387.561 130.775 387.27 130.598 386.98C130.364 386.583 130.129 386.197 129.889 385.817C121.366 372.147 108.407 361.831 93.1879 356.601C90.9416 355.833 88.6568 355.183 86.3428 354.654C85.7169 354.512 85.0899 354.38 84.4583 354.253C83.6893 354.096 83.0477 353.978 82.4386 353.881C82.1498 353.83 81.8651 353.784 81.5831 353.738L81.1284 353.666C80.0749 353.512 79.1227 353.39 78.23 353.295C76.5442 353.113 74.8143 352.993 73.0876 352.937C72.3057 352.908 71.5092 352.894 70.7184 352.894C70.5255 352.895 70.3422 352.894 70.1564 352.899C70.0481 352.896 69.9737 352.897 69.8995 352.898L69.1214 352.913C67.5507 352.947 65.973 353.036 64.4325 353.177L64.3848 353.179C63.8456 353.224 63.2773 353.286 62.7089 353.351C61.8713 353.446 61.0725 353.552 60.3333 353.667C59.0833 353.852 57.8306 354.074 56.6064 354.328C43.1758 357.093 30.8583 363.767 21.1975 373.514C11.5366 383.261 4.96189 395.647 2.2972 409.121C-0.367491 422.595 0.996323 436.557 6.21776 449.257C11.4392 461.958 20.286 472.832 31.6498 480.518C32.3693 481.014 33.1079 481.497 33.8483 481.957C35.2746 482.85 36.7527 483.702 38.243 484.491C38.8636 484.82 39.4932 485.14 40.1164 485.443Z" fill="#CBCBCB"/>
<path d="M130.758 407.444C129.992 408.446 129.017 409.267 127.9 409.85C126.783 410.432 125.552 410.763 124.293 410.817C123.035 410.872 121.78 410.65 120.617 410.166C119.454 409.682 118.411 408.949 117.561 408.018L99.0499 414.728L92.2354 404.454L118.51 395.345C120.166 394.019 122.25 393.347 124.368 393.458C126.485 393.568 128.489 394.453 129.999 395.944C131.508 397.436 132.42 399.43 132.56 401.55C132.7 403.669 132.059 405.766 130.758 407.444Z" fill="#9F616A"/>
<path d="M72.9155 408.401L111.052 395.773L117.478 409.825L81.9229 420.749L72.9155 408.401Z" fill="#CCCCCC"/>
<path d="M87.1831 491.047C74.385 494.119 60.9845 493.546 48.4939 489.394L49.3472 481.311L50.1389 473.76L62.0145 455.366L65.8213 449.473L81.5084 455.186L83.1061 465.278L85.6518 481.373L87.1831 491.047Z" fill="#2F2E41"/>
<path d="M96.4039 488.126C95.3751 488.539 94.3274 488.924 93.275 489.28C92.0993 489.684 90.9109 490.054 89.71 490.391C88.8756 490.624 88.0333 490.842 87.1831 491.047C74.3851 494.119 60.9845 493.546 48.4939 489.394C47.5126 489.066 46.5408 488.715 45.5784 488.349C45.7097 491.161 45.6241 493.98 45.3224 496.779C43.9529 493.499 42.7597 490.147 41.7479 486.739C41.6768 486.511 41.6104 486.283 41.544 486.055C41.2122 484.906 40.9182 483.809 40.6528 482.778C40.3494 481.586 40.0886 480.48 39.8705 479.468C39.003 475.498 38.728 473.043 38.728 473.043L47.9962 453.761L49.8498 453.975L50.6178 454.06L55.2637 454.592L62.0146 455.366L72.9514 456.615L83.1061 465.278L92.2036 473.043C92.2036 473.043 92.9621 475.626 94.152 479.905C94.7968 482.204 95.56 484.991 96.4039 488.126Z" fill="#2F2E41"/>
<path d="M67.0211 359.866C76.0777 359.866 83.4196 352.511 83.4196 343.438C83.4196 334.366 76.0777 327.011 67.0211 327.011C57.9644 327.011 50.6226 334.366 50.6226 343.438C50.6226 352.511 57.9644 359.866 67.0211 359.866Z" fill="#9F616A"/>
<path d="M78.4359 378.045C78.4359 378.045 74.4946 365.841 65.2259 365.841C62.9087 365.841 59.1693 366.033 56.1293 368.021C43.8908 376.021 36.4455 389.62 35.8751 404.248L33.0254 477.329C33.0254 477.329 48.7109 483.043 54.4148 480.9C60.1186 478.757 65.8224 464.472 65.8224 464.472C65.8224 464.472 64.3965 483.757 70.1003 483.043C75.8041 482.329 97.1935 480.9 97.9065 478.043C98.6195 475.186 86.9916 413.757 86.9916 413.757L78.4359 378.045Z" fill="#CCCCCC"/>
<path d="M59.0489 348.255C60.52 348.167 61.9565 348.665 63.4174 348.859C68.6441 349.554 74.0815 345.755 75.2356 340.601C75.3281 339.915 75.5323 339.248 75.8401 338.628C76.6445 337.312 78.4765 337.061 79.9868 337.364C81.497 337.666 82.9286 338.375 84.4666 338.455C86.8413 338.58 89.1212 337.116 90.3868 335.099C91.6524 333.082 92.0107 330.6 91.8398 328.224L90.7014 329.421C90.2388 328.441 90.0602 327.35 90.1859 326.273C89.5827 326.112 88.9482 326.109 88.3434 326.264C87.7386 326.419 87.1837 326.727 86.7317 327.158C85.7279 327.265 86.4855 325.293 85.7397 324.612C85.377 324.388 84.9447 324.307 84.5259 324.384C82.3904 324.405 80.6629 322.768 78.98 321.451C76.0643 319.174 72.6546 317.616 69.0266 316.903C66.6151 316.432 64.0509 316.356 61.764 317.256C59.8859 317.994 58.3139 319.34 56.8595 320.741C53.2791 324.19 50.1087 328.242 48.6191 332.989C47.4082 336.877 47.3739 341.037 48.5206 344.945C49.1207 346.974 50.9296 353.924 53.5776 354.086C56.905 354.289 54.9073 348.502 59.0489 348.255Z" fill="#2F2E41"/>
<path opacity="0.1" d="M65.973 399.674L49.1809 424.346L43.8105 481.654L65.973 399.674Z" fill="black"/>
<path d="M137.142 384.592C137.544 384.028 137.698 383.448 137.487 383.297C137.276 383.146 136.779 383.481 136.377 384.046C135.975 384.61 135.821 385.19 136.032 385.34C136.243 385.491 136.74 385.156 137.142 384.592Z" fill="#3F3D56"/>
<path d="M114.748 411.173C114.275 410.834 113.955 410.322 113.859 409.747C113.763 409.173 113.899 408.584 114.237 408.109L133.336 381.294C133.673 380.82 134.185 380.499 134.759 380.403C135.332 380.307 135.92 380.443 136.394 380.782L114.748 411.173Z" fill="#6C63FF"/>
<path d="M115.533 413.853L114.428 413.063C114.238 412.927 114.077 412.756 113.953 412.558C113.83 412.36 113.747 412.139 113.708 411.909C113.67 411.679 113.677 411.443 113.729 411.216C113.782 410.989 113.878 410.774 114.014 410.584L135.759 380.052C135.99 379.728 136.34 379.509 136.732 379.443C137.123 379.378 137.525 379.471 137.849 379.702L139.179 380.652L115.533 413.853Z" fill="#2F2E41"/>
<path d="M135.102 383.135L133.647 385.178L134.157 385.542L135.612 383.499L135.102 383.135Z" fill="#D0CDE1"/>
<path d="M133.102 385.944L131.646 387.987L132.156 388.351L133.612 386.308L133.102 385.944Z" fill="#D0CDE1"/>
<path d="M47.6226 500.347C48.3583 499.323 48.8609 498.15 49.0951 496.91C49.3292 495.671 49.2892 494.395 48.9778 493.172C48.6665 491.95 48.0913 490.811 47.2929 489.835C46.4945 488.859 45.4922 488.071 44.3567 487.525L45.4204 467.833L33.6323 464.267L32.5201 492.097C31.7314 494.069 31.6922 496.262 32.4097 498.261C33.1272 500.259 34.5517 501.925 36.4133 502.942C38.2749 503.959 40.4442 504.257 42.5101 503.778C44.576 503.3 46.3951 502.079 47.6226 500.347Z" fill="#9F616A"/>
<path d="M47.5597 484.15H30.506L25.8135 431.527L25.8296 431.479L41.7913 384.518C42.3533 382.865 43.2528 381.346 44.4327 380.06C45.6126 378.774 47.0469 377.748 48.6442 377.048C50.2416 376.348 51.9671 375.988 53.7107 375.993C55.4544 375.997 57.178 376.365 58.7719 377.073C60.3658 377.782 61.7949 378.815 62.9683 380.107C64.1418 381.399 65.0338 382.921 65.5875 384.578C66.1413 386.234 66.3447 387.988 66.1847 389.727C66.0248 391.467 65.505 393.153 64.6585 394.681L45.8768 428.564L47.5597 484.15Z" fill="#CCCCCC"/>
<path d="M412.526 255.937C412.539 269.788 408.47 283.335 400.829 294.879C393.189 306.424 382.316 315.452 369.575 320.832C356.834 326.212 342.791 327.704 329.207 325.122C315.622 322.539 303.101 315.998 293.213 306.316C283.324 296.635 276.509 284.245 273.621 270.699C270.733 257.153 271.9 243.055 276.977 230.171C282.054 217.287 290.815 206.192 302.16 198.275C313.506 190.358 326.932 185.973 340.756 185.669C340.974 185.664 341.192 185.659 341.415 185.654C341.728 185.65 342.045 185.65 342.363 185.65C343.159 185.65 343.956 185.664 344.747 185.692C346.492 185.749 348.218 185.87 349.924 186.053C350.91 186.158 351.882 186.286 352.854 186.429C352.963 186.448 353.077 186.462 353.186 186.481C357.196 187.1 361.145 188.071 364.986 189.383C378.851 194.12 390.89 203.084 399.415 215.019C407.94 226.954 412.525 241.261 412.526 255.937Z" fill="white"/>
<path d="M342.298 326.83C303.342 326.832 271.634 295.103 271.598 256.07C271.58 237.544 278.81 219.748 291.736 206.499C304.662 193.249 322.256 185.601 340.746 185.194L341.405 185.179C342.521 185.163 343.658 185.178 344.765 185.218C346.511 185.275 348.265 185.397 349.975 185.581C350.881 185.677 351.845 185.801 352.923 185.959L353.267 186.013C369.918 188.603 385.094 197.077 396.05 209.902C407.006 222.727 413.019 239.057 413 255.937V255.937C413.037 294.99 381.35 326.793 342.366 326.83L342.298 326.83ZM342.356 186.125C342.043 186.125 341.73 186.125 341.422 186.129L340.766 186.144C303.114 186.972 272.51 218.341 272.546 256.069C272.582 294.576 303.868 325.878 342.298 325.88H342.365C380.827 325.844 412.088 294.468 412.052 255.938V255.937C412.07 239.282 406.138 223.17 395.327 210.517C384.517 197.863 369.543 189.504 353.114 186.95L352.773 186.897C351.72 186.742 350.768 186.62 349.875 186.526C348.187 186.344 346.457 186.223 344.732 186.167C343.95 186.139 343.154 186.125 342.363 186.125H342.356Z" fill="#CBCBCB"/>
<path d="M288.676 259.731C288.815 259.512 288.454 259.033 287.869 258.662C287.285 258.291 286.698 258.169 286.559 258.388C286.421 258.608 286.782 259.087 287.366 259.457C287.951 259.828 288.537 259.951 288.676 259.731Z" fill="#3F3D56"/>
<path d="M286.625 255.645C286.779 255.402 286.98 255.191 287.215 255.025C287.45 254.859 287.716 254.741 287.997 254.677C288.278 254.614 288.568 254.607 288.852 254.656C289.136 254.706 289.407 254.81 289.65 254.965L317.432 272.588C317.675 272.743 317.885 272.943 318.051 273.179C318.217 273.415 318.335 273.681 318.398 273.963C318.461 274.244 318.468 274.535 318.419 274.819C318.369 275.103 318.265 275.375 318.111 275.619L286.625 255.645Z" fill="#6C63FF"/>
<path d="M283.997 256.577L284.871 255.195C285.084 254.859 285.421 254.621 285.809 254.533C286.196 254.446 286.603 254.517 286.938 254.73L318.57 274.796C318.767 274.921 318.937 275.083 319.071 275.274C319.205 275.465 319.301 275.68 319.352 275.908C319.403 276.136 319.409 276.371 319.369 276.601C319.329 276.831 319.244 277.051 319.12 277.248L318.393 278.397L283.997 256.577Z" fill="#2F2E41"/>
<path d="M288.707 257.337L288.372 257.867L290.488 259.21L290.823 258.68L288.707 257.337Z" fill="#D0CDE1"/>
<path d="M291.617 259.183L291.282 259.713L293.399 261.056L293.734 260.526L291.617 259.183Z" fill="#D0CDE1"/>
<path d="M342.55 192.885C353.456 192.885 362.296 184.029 362.296 173.104C362.296 162.179 353.456 153.323 342.55 153.323C331.645 153.323 322.804 162.179 322.804 173.104C322.804 184.029 331.645 192.885 342.55 192.885Z" fill="#FFB8B8"/>
<path d="M361.354 323.622C345.334 328.104 328.248 326.766 313.117 319.846L314.634 279.241L314.748 276.083L314.791 275.057L314.843 273.547L314.881 272.583C314.881 272.583 314.942 272.578 315.061 272.573C315.383 272.55 316.128 272.497 317.194 272.436C318.432 272.364 320.096 272.274 322.035 272.193C322.494 272.174 322.968 272.155 323.457 272.132C333.668 271.752 349.616 271.671 351.726 274.753L351.991 276.567L352.418 279.498L353.29 285.486C353.29 285.486 363.208 305.243 361.354 323.622Z" fill="#2F2E41"/>
<path d="M366.367 221.21L362.478 257.199L355.071 273.612L352.326 279.699L312.593 279.216L316.686 251.475C310.907 236.518 324.633 230.487 324.633 230.487L338.871 201.264C338.871 201.264 342.664 199.364 352.567 198.886C361.773 198.441 354.515 199.839 354.515 199.839C366.556 198.633 366.367 221.21 366.367 221.21Z" fill="#CCCCCC"/>
<path opacity="0.2" d="M354.419 259.099L347.012 275.512C344.633 271.054 342.822 266.005 342.822 263.024C342.822 254.822 351.009 259.164 351.009 259.164C351.009 259.164 344.387 222.858 344.387 212.003C344.387 204.792 350.388 236.792 354.419 259.099Z" fill="black"/>
<path d="M365.308 161.053C364.023 157.912 362.036 155.109 359.499 152.86C360.54 152.51 361.408 151.777 361.928 150.809C362.688 149.302 362.286 147.412 361.252 146.064C360.31 144.924 359.092 144.046 357.714 143.513C358.724 143.973 359.828 144.186 360.936 144.134C362.279 143.994 363.621 142.938 363.542 141.628C363.466 140.38 362.24 139.536 361.14 138.885C360.427 138.462 359.713 138.04 359 137.617C359.212 137.207 359.398 136.784 359.557 136.35C360.173 134.774 360.321 133.053 359.985 131.395C359.648 129.736 358.84 128.21 357.659 127C359.996 129.383 359.399 133.071 357.09 136.064C357.016 136.16 356.936 136.254 356.859 136.349C356.401 136.079 355.944 135.808 355.487 135.537C354.346 134.861 353.16 134.17 351.835 134.011C350.51 133.852 349 134.377 348.459 135.561C347.88 136.829 348.539 138.446 347.784 139.623C347.124 140.653 345.682 140.872 344.433 140.823C343.184 140.774 341.855 140.577 340.744 141.13C339.198 141.9 338.691 143.981 339.379 145.533C339.684 146.194 340.14 146.774 340.709 147.228C337.401 147.691 334.144 148.674 330.943 149.675C327.169 150.855 323.324 152.108 320.17 154.496C317.015 156.884 314.625 160.654 314.926 164.603C315.227 168.553 319.143 174.773 323.047 174.142L323.641 172.278C326.001 171.154 328.653 170.796 331.226 171.255C333.8 171.713 336.166 172.965 337.995 174.835C338.04 172.348 341.818 171.522 343.701 173.143C345.583 174.765 345.947 177.506 346.092 179.988C346.238 182.471 346.377 185.174 348.009 187.048C349.576 188.846 352.245 189.404 354.567 188.868C356.889 188.332 358.896 186.857 360.559 185.147C366.591 178.944 368.534 169.087 365.308 161.053Z" fill="#2F2E41"/>
<path d="M302.327 276.84C303.349 277.577 304.52 278.081 305.757 278.315C306.995 278.55 308.268 278.51 309.489 278.198C310.709 277.886 311.846 277.31 312.82 276.51C313.794 275.71 314.581 274.706 315.126 273.568L368.917 274.634L372.477 262.825L310.562 261.711C308.594 260.921 306.405 260.881 304.41 261.6C302.414 262.319 300.752 263.746 299.736 265.611C298.721 267.476 298.424 269.649 298.902 271.719C299.379 273.788 300.598 275.61 302.327 276.84Z" fill="#FFB8B8"/>
<path d="M354.621 197.891C354.621 197.891 342.099 198.856 342.099 209.711C342.099 220.567 353.417 259.164 353.417 259.164C353.417 259.164 345.23 254.822 345.23 263.024C345.23 271.225 358.956 295.107 360.4 279.186C360.4 279.186 381.11 289.318 379.906 270.26C378.702 251.203 365.698 210.917 365.698 210.917C365.698 210.917 364.253 197.167 354.621 197.891Z" fill="#CCCCCC"/>
</g>
<defs>
<clipPath id="clip0_328_113">
<rect width="413" height="377" fill="white" transform="translate(0 127)"/>
</clipPath>
</defs>
</svg>
