<svg width="257" height="23" viewBox="0 0 257 23" fill="none" xmlns="http://www.w3.org/2000/svg">
<path d="M7.76234 1.2C9.28234 1.2 10.6023 1.456 11.7223 1.968C12.8423 2.464 13.7063 3.184 14.3143 4.128C14.9223 5.056 15.2263 6.152 15.2263 7.416C15.2263 8.68 14.9223 9.776 14.3143 10.704C13.7063 11.632 12.8423 12.352 11.7223 12.864C10.6023 13.36 9.28234 13.608 7.76234 13.608H4.83434V18H0.0823438V1.2H7.76234ZM7.47434 9.864C8.45034 9.864 9.18634 9.656 9.68234 9.24C10.1783 8.808 10.4263 8.2 10.4263 7.416C10.4263 6.632 10.1783 6.024 9.68234 5.592C9.18634 5.16 8.45034 4.944 7.47434 4.944H4.83434V9.864H7.47434ZM21.7885 6.552C22.2525 5.96 22.8525 5.52 23.5885 5.232C24.3405 4.928 25.1965 4.776 26.1565 4.776V8.88C25.7405 8.832 25.3965 8.808 25.1245 8.808C24.1485 8.808 23.3805 9.072 22.8205 9.6C22.2765 10.128 22.0045 10.936 22.0045 12.024V18H17.4445V4.992H21.7885V6.552ZM34.881 14.736C35.505 14.736 36.041 14.648 36.489 14.472C36.953 14.296 37.417 14.008 37.881 13.608L40.257 16.104C39.025 17.512 37.185 18.216 34.737 18.216C33.217 18.216 31.881 17.928 30.729 17.352C29.577 16.776 28.681 15.976 28.041 14.952C27.417 13.928 27.105 12.768 27.105 11.472C27.105 10.192 27.417 9.048 28.041 8.04C28.665 7.016 29.521 6.216 30.609 5.64C31.713 5.064 32.945 4.776 34.305 4.776C35.569 4.776 36.721 5.04 37.761 5.568C38.817 6.08 39.657 6.84 40.281 7.848C40.905 8.84 41.217 10.024 41.217 11.4L31.929 13.176C32.425 14.216 33.409 14.736 34.881 14.736ZM34.329 8.016C33.545 8.016 32.905 8.264 32.409 8.76C31.913 9.24 31.633 9.936 31.569 10.848L36.849 9.816C36.689 9.272 36.385 8.84 35.937 8.52C35.489 8.184 34.953 8.016 34.329 8.016ZM51.5035 4.776C52.6875 4.776 53.7595 5.056 54.7195 5.616C55.6955 6.16 56.4635 6.944 57.0235 7.968C57.5995 8.976 57.8875 10.152 57.8875 11.496C57.8875 12.84 57.5995 14.024 57.0235 15.048C56.4635 16.056 55.6955 16.84 54.7195 17.4C53.7595 17.944 52.6875 18.216 51.5035 18.216C49.9835 18.216 48.7755 17.76 47.8795 16.848V22.656H43.3195V4.992H47.6635V6.288C48.5115 5.28 49.7915 4.776 51.5035 4.776ZM50.5435 14.592C51.3435 14.592 51.9995 14.32 52.5115 13.776C53.0235 13.216 53.2795 12.456 53.2795 11.496C53.2795 10.536 53.0235 9.784 52.5115 9.24C51.9995 8.68 51.3435 8.4 50.5435 8.4C49.7435 8.4 49.0875 8.68 48.5755 9.24C48.0635 9.784 47.8075 10.536 47.8075 11.496C47.8075 12.456 48.0635 13.216 48.5755 13.776C49.0875 14.32 49.7435 14.592 50.5435 14.592ZM73.759 4.992V18H69.415V16.704C68.567 17.712 67.287 18.216 65.575 18.216C64.391 18.216 63.311 17.944 62.335 17.4C61.375 16.84 60.607 16.048 60.031 15.024C59.471 14 59.191 12.816 59.191 11.472C59.191 10.128 59.471 8.952 60.031 7.944C60.607 6.92 61.375 6.136 62.335 5.592C63.311 5.048 64.391 4.776 65.575 4.776C67.111 4.776 68.319 5.224 69.199 6.12V4.992H73.759ZM66.535 14.592C67.335 14.592 67.991 14.32 68.503 13.776C69.015 13.216 69.271 12.448 69.271 11.472C69.271 10.512 69.015 9.76 68.503 9.216C67.991 8.672 67.335 8.4 66.535 8.4C65.735 8.4 65.079 8.672 64.567 9.216C64.055 9.76 63.799 10.512 63.799 11.472C63.799 12.448 64.055 13.216 64.567 13.776C65.079 14.32 65.735 14.592 66.535 14.592ZM81.0385 6.552C81.5025 5.96 82.1025 5.52 82.8385 5.232C83.5905 4.928 84.4465 4.776 85.4065 4.776V8.88C84.9905 8.832 84.6465 8.808 84.3745 8.808C83.3985 8.808 82.6305 9.072 82.0705 9.6C81.5265 10.128 81.2545 10.936 81.2545 12.024V18H76.6945V4.992H81.0385V6.552ZM94.131 14.736C94.755 14.736 95.291 14.648 95.739 14.472C96.203 14.296 96.667 14.008 97.131 13.608L99.507 16.104C98.275 17.512 96.435 18.216 93.987 18.216C92.467 18.216 91.131 17.928 89.979 17.352C88.827 16.776 87.931 15.976 87.291 14.952C86.667 13.928 86.355 12.768 86.355 11.472C86.355 10.192 86.667 9.048 87.291 8.04C87.915 7.016 88.771 6.216 89.859 5.64C90.963 5.064 92.195 4.776 93.555 4.776C94.819 4.776 95.971 5.04 97.011 5.568C98.067 6.08 98.907 6.84 99.531 7.848C100.155 8.84 100.467 10.024 100.467 11.4L91.179 13.176C91.675 14.216 92.659 14.736 94.131 14.736ZM93.579 8.016C92.795 8.016 92.155 8.264 91.659 8.76C91.163 9.24 90.883 9.936 90.819 10.848L96.099 9.816C95.939 9.272 95.635 8.84 95.187 8.52C94.739 8.184 94.203 8.016 93.579 8.016ZM114.282 18.216C113.194 18.216 112.122 18.096 111.066 17.856C110.01 17.6 109.162 17.272 108.522 16.872L109.89 13.752C110.482 14.12 111.186 14.416 112.002 14.64C112.818 14.848 113.626 14.952 114.426 14.952C115.162 14.952 115.682 14.88 115.986 14.736C116.306 14.576 116.466 14.352 116.466 14.064C116.466 13.776 116.274 13.576 115.89 13.464C115.522 13.336 114.93 13.216 114.114 13.104C113.074 12.976 112.186 12.808 111.45 12.6C110.73 12.392 110.106 12.008 109.578 11.448C109.05 10.888 108.786 10.104 108.786 9.096C108.786 8.264 109.034 7.528 109.53 6.888C110.026 6.232 110.746 5.72 111.69 5.352C112.65 4.968 113.794 4.776 115.122 4.776C116.066 4.776 117.002 4.872 117.93 5.064C118.858 5.256 119.634 5.528 120.258 5.88L118.89 8.976C117.738 8.336 116.49 8.016 115.146 8.016C114.426 8.016 113.898 8.104 113.562 8.28C113.226 8.44 113.058 8.656 113.058 8.928C113.058 9.232 113.242 9.448 113.61 9.576C113.978 9.688 114.586 9.808 115.434 9.936C116.506 10.096 117.394 10.28 118.098 10.488C118.802 10.696 119.41 11.08 119.922 11.64C120.45 12.184 120.714 12.952 120.714 13.944C120.714 14.76 120.466 15.496 119.97 16.152C119.474 16.792 118.738 17.296 117.762 17.664C116.802 18.032 115.642 18.216 114.282 18.216ZM136.359 4.992V18H132.015V16.608C131.535 17.136 130.959 17.536 130.287 17.808C129.615 18.08 128.903 18.216 128.151 18.216C126.471 18.216 125.127 17.72 124.119 16.728C123.127 15.736 122.631 14.248 122.631 12.264V4.992H127.191V11.52C127.191 12.496 127.375 13.208 127.743 13.656C128.111 14.104 128.647 14.328 129.351 14.328C130.071 14.328 130.655 14.08 131.103 13.584C131.567 13.072 131.799 12.296 131.799 11.256V4.992H136.359ZM153.048 4.992V18H148.704V16.704C147.856 17.712 146.576 18.216 144.864 18.216C143.68 18.216 142.6 17.944 141.624 17.4C140.664 16.84 139.896 16.048 139.32 15.024C138.76 14 138.48 12.816 138.48 11.472C138.48 10.128 138.76 8.952 139.32 7.944C139.896 6.92 140.664 6.136 141.624 5.592C142.6 5.048 143.68 4.776 144.864 4.776C146.4 4.776 147.608 5.224 148.488 6.12V4.992H153.048ZM145.824 14.592C146.624 14.592 147.28 14.32 147.792 13.776C148.304 13.216 148.56 12.448 148.56 11.472C148.56 10.512 148.304 9.76 147.792 9.216C147.28 8.672 146.624 8.4 145.824 8.4C145.024 8.4 144.368 8.672 143.856 9.216C143.344 9.76 143.088 10.512 143.088 11.472C143.088 12.448 143.344 13.216 143.856 13.776C144.368 14.32 145.024 14.592 145.824 14.592ZM169.616 18.216C168.176 18.216 166.888 17.928 165.752 17.352C164.616 16.776 163.728 15.976 163.088 14.952C162.464 13.928 162.152 12.768 162.152 11.472C162.152 10.176 162.464 9.024 163.088 8.016C163.728 6.992 164.616 6.2 165.752 5.64C166.888 5.064 168.176 4.776 169.616 4.776C171.088 4.776 172.36 5.096 173.432 5.736C174.504 6.36 175.264 7.232 175.712 8.352L172.184 10.152C171.592 8.984 170.728 8.4 169.592 8.4C168.776 8.4 168.096 8.672 167.552 9.216C167.024 9.76 166.76 10.512 166.76 11.472C166.76 12.448 167.024 13.216 167.552 13.776C168.096 14.32 168.776 14.592 169.592 14.592C170.728 14.592 171.592 14.008 172.184 12.84L175.712 14.64C175.264 15.76 174.504 16.64 173.432 17.28C172.36 17.904 171.088 18.216 169.616 18.216ZM183.816 18.216C182.424 18.216 181.168 17.928 180.048 17.352C178.928 16.776 178.048 15.976 177.408 14.952C176.784 13.928 176.472 12.768 176.472 11.472C176.472 10.192 176.784 9.04 177.408 8.016C178.048 6.992 178.92 6.2 180.024 5.64C181.144 5.064 182.408 4.776 183.816 4.776C185.224 4.776 186.488 5.064 187.608 5.64C188.728 6.2 189.6 6.992 190.224 8.016C190.848 9.024 191.16 10.176 191.16 11.472C191.16 12.768 190.848 13.928 190.224 14.952C189.6 15.976 188.728 16.776 187.608 17.352C186.488 17.928 185.224 18.216 183.816 18.216ZM183.816 14.592C184.616 14.592 185.272 14.32 185.784 13.776C186.296 13.216 186.552 12.448 186.552 11.472C186.552 10.512 186.296 9.76 185.784 9.216C185.272 8.672 184.616 8.4 183.816 8.4C183.016 8.4 182.36 8.672 181.848 9.216C181.336 9.76 181.08 10.512 181.08 11.472C181.08 12.448 181.336 13.216 181.848 13.776C182.36 14.32 183.016 14.592 183.816 14.592ZM201.745 4.776C203.361 4.776 204.657 5.256 205.633 6.216C206.625 7.176 207.121 8.624 207.121 10.56V18H202.561V11.304C202.561 9.528 201.849 8.64 200.425 8.64C199.641 8.64 199.009 8.896 198.529 9.408C198.065 9.92 197.833 10.688 197.833 11.712V18H193.273V4.992H197.617V6.408C198.129 5.88 198.737 5.48 199.441 5.208C200.145 4.92 200.913 4.776 201.745 4.776ZM218.36 17.472C217.976 17.712 217.504 17.896 216.944 18.024C216.4 18.152 215.816 18.216 215.192 18.216C213.496 18.216 212.192 17.8 211.28 16.968C210.384 16.136 209.936 14.896 209.936 13.248V2.088H214.496V5.472H217.448V8.88H214.496V13.2C214.496 13.68 214.616 14.048 214.856 14.304C215.096 14.56 215.424 14.688 215.84 14.688C216.368 14.688 216.832 14.552 217.232 14.28L218.36 17.472ZM233.486 4.992V18H229.142V16.704C228.294 17.712 227.014 18.216 225.302 18.216C224.118 18.216 223.038 17.944 222.062 17.4C221.102 16.84 220.334 16.048 219.758 15.024C219.198 14 218.918 12.816 218.918 11.472C218.918 10.128 219.198 8.952 219.758 7.944C220.334 6.92 221.102 6.136 222.062 5.592C223.038 5.048 224.118 4.776 225.302 4.776C226.838 4.776 228.046 5.224 228.926 6.12V4.992H233.486ZM226.262 14.592C227.062 14.592 227.718 14.32 228.23 13.776C228.742 13.216 228.998 12.448 228.998 11.472C228.998 10.512 228.742 9.76 228.23 9.216C227.718 8.672 227.062 8.4 226.262 8.4C225.462 8.4 224.806 8.672 224.294 9.216C223.782 9.76 223.526 10.512 223.526 11.472C223.526 12.448 223.782 13.216 224.294 13.776C224.806 14.32 225.462 14.592 226.262 14.592ZM245.325 10.176C244.557 10.176 243.909 9.92 243.381 9.408C242.853 8.896 242.589 8.248 242.589 7.464C242.589 6.664 242.845 6.016 243.357 5.52C243.885 5.024 244.541 4.776 245.325 4.776C246.125 4.776 246.781 5.024 247.293 5.52C247.805 6.016 248.061 6.664 248.061 7.464C248.061 8.248 247.797 8.896 247.269 9.408C246.757 9.92 246.109 10.176 245.325 10.176ZM245.325 18.216C244.557 18.216 243.909 17.96 243.381 17.448C242.853 16.936 242.589 16.288 242.589 15.504C242.589 14.704 242.845 14.056 243.357 13.56C243.885 13.064 244.541 12.816 245.325 12.816C246.125 12.816 246.781 13.064 247.293 13.56C247.805 14.056 248.061 14.704 248.061 15.504C248.061 16.288 247.797 16.936 247.269 17.448C246.757 17.96 246.109 18.216 245.325 18.216ZM248.69 22.656C249.73 20.816 250.49 18.992 250.97 17.184C251.45 15.36 251.69 13.44 251.69 11.424C251.69 9.408 251.45 7.496 250.97 5.688C250.49 3.864 249.73 2.032 248.69 0.191999H253.058C254.05 1.632 254.81 3.32 255.338 5.256C255.882 7.176 256.154 9.232 256.154 11.424C256.154 13.616 255.882 15.68 255.338 17.616C254.81 19.536 254.05 21.216 253.058 22.656H248.69Z" fill="#2A3DA3"/>
</svg>
